<?xml version="1.0" encoding="UTF-8"?>
<svg version="1.0" xmlns="http://www.w3.org/2000/svg" viewBox="0 0 2845 2490">
    <style type="text/css">
        path {shape-rendering: geometricPrecision;text-rendering: geometricPrecision;image-rendering: optimizeQuality;fill-rule: evenodd;clip-rule: evenodd;}
    </style>
    <g>
        <path style="opacity:0.995" fill="#00004d" d="M 1094.5,2.5 C 1239.42,2.25134 1358.92,56.5847 1453,165.5C 1541.54,277.314 1572.54,403.647 1546,544.5C 1512.56,686.957 1430.73,791.124 1300.5,857C 1271.05,871.148 1240.39,881.482 1208.5,888C 1299.67,837.208 1356.51,760.708 1379,658.5C 1349.06,694.222 1311.23,716.722 1265.5,726C 1311.36,684.454 1337.19,632.621 1343,570.5C 1348.28,496.319 1325.11,432.819 1273.5,380C 1254.38,363.612 1234.71,347.945 1214.5,333C 1177.07,301.591 1148.23,263.758 1128,219.5C 1113.2,183.929 1107.54,146.929 1111,108.5C 1112.83,94.0167 1115.17,79.6833 1118,65.5C 1025.51,136.774 968.18,230.108 946,345.5C 931.029,432.925 940.529,517.592 974.5,599.5C 912.071,569.084 873.237,519.751 858,451.5C 820.318,535.799 816.985,621.465 848,708.5C 878.474,787.304 930.641,847.137 1004.5,888C 940.289,873.558 882.289,846.225 830.5,806C 718.718,715.092 661.051,597.092 657.5,452C 660.548,309.684 716.214,193.017 824.5,102C 903.554,39.6981 993.554,6.53141 1094.5,2.5 Z"/>
        <path style="opacity:0.996" fill="#00004d" d="M 290.5,15.5 C 367.855,11.6663 438.521,31.1663 502.5,74C 586.813,138.535 621.313,223.702 606,329.5C 600.433,356.534 591.1,382.2 578,406.5C 562.241,434.245 544.908,460.912 526,486.5C 475.5,553 425,619.5 374.5,686C 460.833,686.5 547.166,686.667 633.5,686.5C 633.5,747.5 633.5,808.5 633.5,869.5C 424.166,869.667 214.833,869.5 5.5,869C 126.333,709.5 247.167,550 368,390.5C 382.864,371.455 395.197,350.789 405,328.5C 420.618,284.139 411.118,246.305 376.5,215C 340.672,189.869 302.339,185.536 261.5,202C 215.306,226.229 197.473,264.063 208,315.5C 215.365,338.242 228.199,357.242 246.5,372.5C 209.711,421.911 173.045,471.411 136.5,521C 42.4846,460.122 0.317953,373.288 10,260.5C 23.6965,164.844 73.1965,94.6771 158.5,50C 200.315,29.714 244.315,18.214 290.5,15.5 Z"/>
        <path style="opacity:0.982" fill="#00004d" d="M 1069.5,768.5 C 1083.11,768.425 1095.61,772.092 1107,779.5C 1120.47,770.092 1135.3,766.925 1151.5,770C 1163.68,775.044 1176.34,777.877 1189.5,778.5C 1169.94,815.123 1139.27,832.29 1097.5,830C 1067.37,826.525 1044.21,812.025 1028,786.5C 1026.26,783.691 1025.09,780.691 1024.5,777.5C 1029.7,777.702 1034.87,777.369 1040,776.5C 1049.91,773.6 1059.74,770.934 1069.5,768.5 Z"/>
        <path style="opacity:0.997" fill="#3ddd8d" d="M 1597.5,982.5 C 1642.02,981.103 1684.02,990.603 1723.5,1011C 1773.93,1040.96 1805.43,1084.79 1818,1142.5C 1820.32,1153.74 1821.99,1165.07 1823,1176.5C 1823.5,1298.5 1823.67,1420.5 1823.5,1542.5C 1767.83,1542.5 1712.17,1542.5 1656.5,1542.5C 1658.17,1514.84 1651.01,1489.84 1635,1467.5C 1613.51,1444.72 1587.01,1433.72 1555.5,1434.5C 1555.5,1470.5 1555.5,1506.5 1555.5,1542.5C 1499.5,1542.5 1443.5,1542.5 1387.5,1542.5C 1387.33,1423.17 1387.5,1303.83 1388,1184.5C 1389.99,1123.78 1413.16,1072.95 1457.5,1032C 1488.4,1006.89 1523.74,991.559 1563.5,986C 1574.95,984.427 1586.28,983.26 1597.5,982.5 Z M 1601.5,1145.5 C 1634.98,1146.15 1653.15,1163.15 1656,1196.5C 1656.67,1234.5 1656.67,1272.5 1656,1310.5C 1625.06,1292.22 1591.56,1283.22 1555.5,1283.5C 1555.33,1252.5 1555.5,1221.5 1556,1190.5C 1559.81,1163.86 1574.97,1148.86 1601.5,1145.5 Z"/>
        <path style="opacity:0.998" fill="#3ddd8d" d="M 2146.5,982.5 C 2227.66,980.826 2299,1005.99 2360.5,1058C 2408.22,1101.93 2437.22,1156.1 2447.5,1220.5C 2388.83,1220.67 2330.17,1220.5 2271.5,1220C 2246.41,1166.3 2204.07,1140.63 2144.5,1143C 2084.72,1151.12 2048.22,1184.62 2035,1243.5C 2027.53,1291.43 2041.37,1331.93 2076.5,1365C 2117.22,1395.05 2161.22,1400.72 2208.5,1382C 2242.97,1365.35 2265.3,1338.52 2275.5,1301.5C 2333.83,1300.5 2392.16,1300.17 2450.5,1300.5C 2435.56,1405.58 2380.23,1480.75 2284.5,1526C 2202.05,1559.81 2119.05,1561.14 2035.5,1530C 1940.48,1489.98 1882.32,1419.48 1861,1318.5C 1846.82,1229.88 1868.15,1151.21 1925,1082.5C 1984.87,1018.66 2058.7,985.324 2146.5,982.5 Z"/>
        <path style="opacity:0.997" fill="#3ddd8d" d="M 2633.5,982.5 C 2703.44,981.828 2772.77,987.828 2841.5,1000.5C 2841.5,1051.17 2841.5,1101.83 2841.5,1152.5C 2805.71,1145.98 2769.71,1140.98 2733.5,1137.5C 2733.5,1272.5 2733.5,1407.5 2733.5,1542.5C 2676.83,1542.5 2620.17,1542.5 2563.5,1542.5C 2563.5,1407.83 2563.5,1273.17 2563.5,1138.5C 2527.24,1141.2 2491.24,1145.87 2455.5,1152.5C 2455.5,1101.83 2455.5,1051.17 2455.5,1000.5C 2514.46,989.505 2573.8,983.505 2633.5,982.5 Z"/>
        <path style="opacity:0.996" fill="#3ddd8d" d="M 5.5,993.5 C 62.8333,993.5 120.167,993.5 177.5,993.5C 177.5,1176.5 177.5,1359.5 177.5,1542.5C 120.167,1542.5 62.8333,1542.5 5.5,1542.5C 5.5,1359.5 5.5,1176.5 5.5,993.5 Z"/>
        <path style="opacity:0.998" fill="#3ddd8d" d="M 239.5,993.5 C 277.501,993.333 315.501,993.5 353.5,994C 406.473,996.409 456.473,1009.74 503.5,1034C 521.366,1043.86 537.532,1056.03 552,1070.5C 576.644,1046.75 605.144,1028.91 637.5,1017C 673.998,1003.7 711.665,996.034 750.5,994C 788.499,993.5 826.499,993.333 864.5,993.5C 864.5,1176.5 864.5,1359.5 864.5,1542.5C 807.833,1542.5 751.167,1542.5 694.5,1542.5C 694.833,1419.5 694.5,1296.5 693.5,1173.5C 656.325,1178.17 636.491,1199.17 634,1236.5C 633.5,1290.5 633.333,1344.5 633.5,1398.5C 579.167,1398.5 524.833,1398.5 470.5,1398.5C 470.667,1345.17 470.5,1291.83 470,1238.5C 467.666,1200.5 447.666,1178.83 410,1173.5C 409.5,1296.5 409.333,1419.5 409.5,1542.5C 352.833,1542.5 296.167,1542.5 239.5,1542.5C 239.5,1359.5 239.5,1176.5 239.5,993.5 Z"/>
        <path style="opacity:0.998" fill="#3ddd8d" d="M 928.5,993.5 C 1006.5,993.333 1084.5,993.5 1162.5,994C 1208.07,997.079 1250.07,1010.75 1288.5,1035C 1349.48,1079.19 1375.65,1139.02 1367,1214.5C 1359.82,1267.71 1334.99,1310.54 1292.5,1343C 1281.11,1351.39 1269.44,1359.39 1257.5,1367C 1225.17,1384.83 1193.17,1403.16 1161.5,1422C 1141.75,1434.41 1125.25,1450.24 1112,1469.5C 1100.09,1492.38 1095.59,1516.72 1098.5,1542.5C 1041.83,1542.5 985.167,1542.5 928.5,1542.5C 928.5,1359.5 928.5,1176.5 928.5,993.5 Z M 1098.5,1150.5 C 1117.17,1150.33 1135.84,1150.5 1154.5,1151C 1184.28,1157.12 1197.45,1175.28 1194,1205.5C 1191.04,1219.58 1183.87,1231.08 1172.5,1240C 1167.01,1244.25 1161.34,1248.25 1155.5,1252C 1136.25,1262.54 1117.42,1273.7 1099,1285.5C 1098.5,1240.5 1098.33,1195.5 1098.5,1150.5 Z"/>
        <path style="opacity:0.996" fill="#00004d" d="M 1874.5,1632.5 C 1943.2,1627.87 2007.87,1641.71 2068.5,1674C 2170.42,1735.95 2213.59,1826.45 2198,1945.5C 2192.02,1974.78 2181.68,2002.45 2167,2028.5C 2153.24,2052.35 2138.24,2075.35 2122,2097.5C 2070.2,2166.27 2018.03,2234.77 1965.5,2303C 2052.17,2303.5 2138.83,2303.67 2225.5,2303.5C 2225.5,2364.5 2225.5,2425.5 2225.5,2486.5C 2016.17,2486.83 1806.83,2486.5 1597.5,2485.5C 1719.86,2324.31 1842.03,2162.98 1964,2001.5C 1972.39,1989.44 1980.39,1977.1 1988,1964.5C 2008.6,1928.4 2009.27,1892.06 1990,1855.5C 1968.27,1825.13 1938.61,1809.47 1901,1808.5C 1862.07,1808.79 1831.74,1824.79 1810,1856.5C 1794.05,1885.69 1792.38,1915.69 1805,1946.5C 1813.15,1962.94 1824.32,1977.1 1838.5,1989C 1801.83,2038.33 1765.17,2087.67 1728.5,2137C 1680.37,2107.7 1644.53,2067.2 1621,2015.5C 1600.29,1964.09 1594.96,1911.09 1605,1856.5C 1625.83,1763.67 1679.66,1697.84 1766.5,1659C 1801.24,1644.48 1837.24,1635.65 1874.5,1632.5 Z"/>
        <path style="opacity:0.995" fill="#00004d" d="M 2255.5,1646.5 C 2323.17,1646.5 2390.83,1646.5 2458.5,1646.5C 2458.04,1745.51 2458.54,1844.51 2460,1943.5C 2463.7,1990.12 2485.87,2024.62 2526.5,2047C 2551.32,2059.74 2576.66,2071.41 2602.5,2082C 2616.98,2088.74 2630.98,2096.24 2644.5,2104.5C 2645.5,2023.17 2645.83,1941.84 2645.5,1860.5C 2710.83,1860.5 2776.17,1860.5 2841.5,1860.5C 2841.5,2069.17 2841.5,2277.83 2841.5,2486.5C 2776.17,2486.5 2710.83,2486.5 2645.5,2486.5C 2645.95,2451.8 2645.45,2417.14 2644,2382.5C 2638.32,2350.97 2622.82,2325.47 2597.5,2306C 2575.93,2290.71 2552.93,2277.71 2528.5,2267C 2485.51,2249.84 2443.51,2230.51 2402.5,2209C 2310.29,2155.51 2261.79,2075.01 2257,1967.5C 2255.54,1860.51 2255.04,1753.51 2255.5,1646.5 Z"/>
    </g>
</svg>