<?xml version="1.0" encoding="UTF-8"?>
<svg version="1.0" xmlns="http://www.w3.org/2000/svg" viewBox="0 0 461 513">
    <g transform="matrix(1.3333333,0,0,-1.3333333,0,512.496)">
        <g>
            <g clip-path="url(#clipPath18)">
                <g transform="translate(50.4541,333.9184)">
                    <path style="fill:#3ede8e;fill-opacity:1;fill-rule:nonzero;stroke:none" d="m 0,0 h 244.364 l 0.002,-161.282 c 0,-67.479 -54.703,-122.183 -122.182,-122.183 -67.479,0 -122.182,54.704 -122.182,122.183 z"/>
                </g>
                <g transform="translate(148.6868,264.7421)">
                    <path style="fill:#000000;fill-opacity:1;fill-rule:nonzero;stroke:none" d="m 0,0 c -1.579,-12.613 -12.406,-21.923 -25.713,-21.923 -14.661,0 -26.089,11.036 -26.089,25.226 0,14.19 11.428,25.227 26.089,25.227 12.781,0 23.232,-8.559 25.412,-20.422 h -12.105 c -2.029,5.556 -7.142,9.461 -13.307,9.461 -7.894,0 -13.985,-6.307 -13.985,-14.266 0,-7.957 6.091,-14.264 13.985,-14.264 6.767,0 12.255,4.58 13.683,10.961 z"/>
                </g>
                <g transform="translate(166.8105,243.6449)">
                    <path style="fill:#000000;fill-opacity:1;fill-rule:nonzero;stroke:none" d="M 0,0 C -8.872,0 -13.684,4.355 -13.684,12.388 V 48.802 H -2.256 V 13.364 c 0,-2.252 1.053,-3.379 3.308,-3.379 H 2.331 L 2.331,0 Z"/>
                </g>
                <g transform="translate(184.2544,279.9834)">
                    <path style="fill:#000000;fill-opacity:1;fill-rule:nonzero;stroke:none" d="m 0,0 v -21.548 c 0,-3.304 1.879,-5.33 4.887,-5.33 3.083,0 4.962,2.026 4.962,5.33 V 0 h 11.429 v -20.947 c 0,-10.136 -6.241,-16.218 -16.391,-16.218 -10.074,0 -16.315,6.082 -16.315,16.218 V 0 Z"/>
                </g>
                <g transform="translate(223.128,268.7963)">
                    <path style="fill:#000000;fill-opacity:1;fill-rule:nonzero;stroke:none" d="m 0,0 v -15.091 h 4.662 c 5.639,0 9.398,3.604 9.398,8.859 0,4.956 -3.308,8.184 -8.045,8.184 C 3.76,1.952 1.88,1.352 0,0 M 4.211,-25.151 H -11.428 V 23.65 L 0,23.65 V 9.536 c 2.331,1.651 5.113,2.477 8.195,2.477 9.474,0 17.067,-7.583 17.067,-18.019 0,-11.262 -8.345,-19.145 -21.051,-19.145"/>
                </g>
                <g transform="translate(172.9095,288.1375)">
                    <path style="fill:#000000;fill-opacity:1;fill-rule:nonzero;stroke:none" d="M 0,0 V 23.104 H 5.588 V 5.011 h 7.083 V 0 Z"/>
                </g>
                <g transform="translate(192.5606,299.156)">
                    <path style="fill:#000000;fill-opacity:1;fill-rule:nonzero;stroke:none" d="M 0,0 H 7.333 C 6.87,1.529 5.446,2.559 3.702,2.559 1.958,2.559 0.535,1.529 0,0 m 3.773,-11.41 c -5.303,0 -9.325,3.911 -9.325,9.029 0,4.976 4.093,8.957 9.219,8.957 5.267,0 9.076,-3.697 9.076,-8.815 V -3.732 H -0.178 c 0.214,-1.991 1.852,-3.448 3.951,-3.448 1.638,0 2.883,0.64 3.702,1.849 h 5.197 C 11.568,-8.957 7.973,-11.41 3.773,-11.41"/>
                </g>
                <g transform="translate(185.7105,288.1097)">
                    <path style="fill:#000000;fill-opacity:1;fill-rule:nonzero;stroke:none" d="M 0,0 V 5.012 H -7.086 V 23.11 h -5.588 V 0 Z"/>
                </g>
                <g transform="translate(205.3643,293.799)">
                    <path style="fill:#000000;fill-opacity:1;fill-rule:nonzero;stroke:none" d="m 0,0 h -5.198 c -0.818,-1.21 -2.066,-1.849 -3.703,-1.849 -2.102,0 -3.739,1.458 -3.952,3.448 H 0.071 v 1.493 c 0,5.121 -3.81,8.818 -9.078,8.818 -5.128,0 -9.222,-3.982 -9.222,-8.96 0,-5.119 4.023,-9.03 9.328,-9.03 4.202,0 7.797,2.452 8.901,6.08 m -8.972,7.891 c 1.744,0 3.169,-1.029 3.631,-2.559 h -7.333 c 0.533,1.53 1.957,2.559 3.702,2.559"/>
                </g>
                    <path style="fill:#000000;fill-opacity:1;fill-rule:nonzero;stroke:none" d="m 172.435,216.564 h 0.391 v -92.126 h -0.391 z"/>
                <g transform="translate(196.3317,155.4648)">
                    <path style="fill:#000000;fill-opacity:1;fill-rule:nonzero;stroke:none" d="m 0,0 c -0.295,-0.443 -0.796,-0.691 -1.259,-0.923 -0.507,-0.252 -1.028,-0.503 -1.454,-0.882 v 4.031 h 1.18 c 0.661,0 1.389,-0.203 1.65,-0.882 C 0.276,0.93 0.249,0.374 0,0 m 0.062,3.065 c -0.597,0.287 -1.242,0.32 -1.891,0.32 h -2.13 v -8.016 h 1.246 c 0,0.454 -0.031,0.925 0.164,1.349 0.314,0.682 1.046,1.011 1.684,1.32 0.685,0.331 1.445,0.654 1.899,1.296 0.403,0.569 0.513,1.323 0.395,2.002 C 1.294,2.113 0.762,2.727 0.062,3.065"/>
                </g>
                <g transform="translate(205.5375,153.8431)">
                    <path style="fill:#000000;fill-opacity:1;fill-rule:nonzero;stroke:none" d="m 0,0 c -0.732,0.743 -1.857,1.003 -2.867,0.841 v 1.31 c 0,0.242 -0.006,0.482 0.056,0.718 0.118,0.452 0.462,0.825 0.905,0.974 0.463,0.156 0.999,0.085 1.392,-0.208 0.395,-0.294 0.577,-0.747 0.582,-1.23 0.003,-0.376 0,-0.753 0,-1.129 V -0.078 C 0.045,-0.052 0.024,-0.024 0,0 M 0.012,4.785 C -1.066,5.395 -2.612,5.215 -3.447,4.275 -3.852,3.819 -4.058,3.231 -4.094,2.627 -4.103,2.474 -4.1,-3.009 -4.1,-3.009 h 1.233 v 2.655 c 0.726,0.092 1.539,0.022 2.148,-0.42 0.546,-0.397 0.786,-1.021 0.787,-1.681 0,-0.184 0,-0.554 0,-0.554 H 1.301 V 2.367 C 1.3,3.352 0.896,4.285 0.012,4.785"/>
                </g>
                <g transform="translate(213.4363,157.6908)">
                    <path style="fill:#000000;fill-opacity:1;fill-rule:nonzero;stroke:none" d="M 0,0 C 0.793,0 1.594,-0.387 1.681,-1.254 1.723,-1.672 1.631,-2.085 1.353,-2.405 1.05,-2.756 0.597,-2.967 0.187,-3.164 -0.31,-3.404 -0.81,-3.653 -1.221,-4.027 V 0 Z m 1.881,-3.879 c -0.143,0.077 -0.295,0.139 -0.454,0.189 0.396,0.218 0.787,0.486 1.064,0.849 0.257,0.336 0.403,0.724 0.449,1.143 C 3.036,-0.819 2.749,0.018 2.026,0.555 1.062,1.27 -0.158,1.159 -1.289,1.159 h -1.178 v -8.016 h 1.246 c 0,0.238 -0.008,0.477 0.003,0.715 0.025,0.53 0.258,1.041 0.721,1.324 0.452,0.277 1.07,0.309 1.553,0.093 0.486,-0.218 0.801,-0.685 0.881,-1.205 0.046,-0.303 0.024,-0.621 0.024,-0.927 h 1.258 c 0,0.44 0.024,0.889 -0.074,1.321 -0.161,0.712 -0.621,1.314 -1.264,1.657"/>
                </g>
                <g transform="translate(220.5271,157.7277)">
                    <path style="fill:#000000;fill-opacity:1;fill-rule:nonzero;stroke:none" d="M 0,0 C 0.406,0.108 0.827,0.159 1.246,0.185 V 1.122 H 0 Z"/>
                </g>
                <g transform="translate(220.5271,157.0248)">
                    <path style="fill:#000000;fill-opacity:1;fill-rule:nonzero;stroke:none" d="M 0,0 V -6.191 H 1.246 V 0.185 C 0.827,0.167 0.405,0.106 0,0"/>
                </g>
                <g transform="translate(230.0845,154.6817)">
                    <path style="fill:#000000;fill-opacity:1;fill-rule:nonzero;stroke:none" d="M 0,0 C -0.447,0.351 -0.982,0.552 -1.51,0.745 -1.999,0.924 -2.569,1.113 -2.923,1.517 -3.25,1.89 -3.177,2.481 -2.84,2.82 c 0.349,0.35 0.909,0.428 1.368,0.282 0.518,-0.164 0.831,-0.63 0.831,-1.166 h 1.233 c 0,0.588 -0.189,1.152 -0.593,1.585 C -0.392,3.941 -0.932,4.19 -1.497,4.264 -2.084,4.341 -2.693,4.265 -3.212,3.969 -3.699,3.692 -4.11,3.252 -4.284,2.712 c -0.167,-0.516 -0.13,-1.16 0.135,-1.638 0.296,-0.532 0.83,-0.852 1.375,-1.085 0.593,-0.253 1.277,-0.408 1.807,-0.786 0.213,-0.152 0.391,-0.348 0.454,-0.608 0.062,-0.255 0.04,-0.542 -0.079,-0.777 -0.288,-0.573 -1.005,-0.748 -1.592,-0.635 -0.658,0.126 -1.133,0.676 -1.133,1.349 h -1.221 c 0,-0.652 0.212,-1.266 0.679,-1.731 0.462,-0.461 1.104,-0.71 1.748,-0.761 0.676,-0.054 1.374,0.082 1.933,0.479 0.515,0.364 0.862,0.93 0.929,1.56 C 0.829,-1.186 0.592,-0.465 0,0"/>
                </g>
                <g transform="translate(241.689,154.509)">
                    <path style="fill:#000000;fill-opacity:1;fill-rule:nonzero;stroke:none" d="M 0,0 C 0.276,0.342 0.544,0.703 0.726,1.105 0.906,1.502 0.971,1.941 0.922,2.374 0.83,3.199 0.26,3.882 -0.483,4.221 -1.242,4.568 -2.199,4.552 -2.943,4.172 -3.693,3.789 -4.231,3.056 -4.276,2.204 -4.322,1.332 -3.917,0.561 -3.231,0.037 l 0.703,0.9 C -2.78,1.178 -2.98,1.47 -3.038,1.82 c -0.055,0.337 0.002,0.677 0.207,0.955 0.402,0.544 1.21,0.707 1.808,0.407 C -0.725,3.033 -0.474,2.773 -0.367,2.453 -0.255,2.121 -0.308,1.739 -0.45,1.424 -0.594,1.106 -0.822,0.835 -1.039,0.564 -1.871,-0.477 -2.703,-1.518 -3.535,-2.559 -3.833,-2.931 -4.13,-3.303 -4.427,-3.675 h 5.636 v 1.147 h -3.233 z"/>
                </g>
                <g transform="translate(253.1272,153.6889)">
                    <path style="fill:#000000;fill-opacity:1;fill-rule:nonzero;stroke:none" d="M 0,0 C -0.486,-1.142 -1.634,-1.876 -2.879,-1.801 -4.084,-1.729 -5.13,-0.865 -5.48,0.284 -5.839,1.462 -5.413,2.78 -4.434,3.526 -3.452,4.276 -2.06,4.303 -1.045,3.6 0.09,2.814 0.541,1.273 0,0 M 0.277,4.088 C -0.964,5.302 -2.909,5.629 -4.486,4.901 -6.076,4.167 -7.034,2.479 -6.868,0.74 c 0.162,-1.706 1.437,-3.168 3.093,-3.587 1.681,-0.427 3.525,0.2 4.531,1.627 C 1.768,0.214 1.738,2.226 0.682,3.628 0.559,3.791 0.423,3.945 0.277,4.088"/>
                </g>
                <g transform="translate(262.5551,154.509)">
                    <path style="fill:#000000;fill-opacity:1;fill-rule:nonzero;stroke:none" d="M 0,0 C 0.275,0.342 0.544,0.703 0.726,1.105 0.906,1.502 0.97,1.941 0.922,2.374 0.83,3.199 0.26,3.882 -0.483,4.221 -1.242,4.568 -2.199,4.552 -2.943,4.172 -3.693,3.789 -4.231,3.056 -4.276,2.204 -4.322,1.332 -3.917,0.561 -3.231,0.037 l 0.703,0.9 c -0.253,0.241 -0.452,0.533 -0.51,0.883 -0.055,0.337 0.002,0.677 0.207,0.955 0.403,0.543 1.21,0.707 1.808,0.407 C -0.725,3.033 -0.474,2.773 -0.367,2.453 -0.256,2.121 -0.308,1.739 -0.45,1.424 -0.594,1.106 -0.822,0.835 -1.039,0.564 -1.871,-0.477 -2.703,-1.518 -3.535,-2.559 -3.833,-2.931 -4.13,-3.303 -4.427,-3.675 h 5.636 v 1.147 h -3.233 z"/>
                </g>
                <g transform="translate(271.3353,156.7042)">
                    <path style="fill:#000000;fill-opacity:1;fill-rule:nonzero;stroke:none" d="m 0,0 v -2.717 c -0.593,0.423 -1.334,0.551 -1.955,0.923 -0.536,0.32 -0.706,0.881 -0.709,1.475 -0.003,0.581 0,2.465 0,2.465 h -1.245 c 0,0 -0.001,-1.669 0,-2.503 10e-4,-0.854 0.211,-1.69 0.911,-2.239 0.431,-0.339 0.949,-0.548 1.463,-0.728 0.458,-0.16 0.946,-0.361 1.26,-0.748 C -0.027,-4.377 0,-4.742 0,-5.119 V -5.87 H 1.196 V 0 Z"/>
                </g>
                <g transform="translate(235.277,172.5784)">
                    <path style="fill:#000000;fill-opacity:1;fill-rule:nonzero;stroke:none" d="M 0,0 C -0.688,0.256 -1.846,0.279 -2.825,-0.517 -3.804,0.279 -4.961,0.256 -5.65,0 c -0.575,-0.214 -1.026,-0.357 -1.874,-0.35 0.84,-1.75 2.629,-2.958 4.699,-2.958 2.07,0 3.859,1.208 4.699,2.958 C 1.027,-0.357 0.575,-0.214 0,0"/>
                </g>
                <g transform="translate(232.4529,216.5641)">
                    <path style="fill:#000000;fill-opacity:1;fill-rule:nonzero;stroke:none" d="m 0,0 c -14.166,0 -25.651,-11.485 -25.651,-25.651 0,-12.144 8.439,-22.317 19.773,-24.975 -9.007,4.819 -12.679,15.867 -8.336,25.122 0.702,-3.655 3.084,-6.912 6.645,-8.601 -4.644,10.86 -1.225,23.627 8.358,30.688 -1.885,-6.455 1.01,-12.362 7.221,-16.82 7.103,-5.1 7.404,-15.507 1.134,-21.132 2.49,0.58 4.808,1.951 6.538,4.05 -1.068,-5.501 -4.517,-10.478 -9.805,-13.307 11.334,2.658 19.773,12.831 19.773,24.975 C 25.65,-11.485 14.166,0 0,0"/>
                </g>
                <g transform="translate(231.1457,143.4514)">
                    <path style="fill:#000000;fill-opacity:1;fill-rule:nonzero;stroke:none" d="m 0,0 c -1.869,0.43 -4.422,-0.044 -6.834,-1.436 -3.773,-2.178 -5.772,-5.78 -4.465,-8.043 0.835,-1.447 2.818,-1.997 5.125,-1.638 -1.055,0.243 -1.892,0.774 -2.364,1.591 -1.307,2.264 0.692,5.865 4.465,8.043 C -2.711,-0.697 -1.304,-0.203 0,0"/>
                </g>
                <g transform="translate(231.1784,134.5197)">
                    <path style="fill:#000000;fill-opacity:1;fill-rule:nonzero;stroke:none" d="m 0,0 c 0.562,-1.834 2.249,-3.808 4.66,-5.2 3.774,-2.179 7.892,-2.109 9.199,0.155 0.835,1.446 0.32,3.439 -1.145,5.257 0.317,-1.035 0.277,-2.026 -0.195,-2.843 C 11.212,-4.895 7.094,-4.964 3.321,-2.786 1.958,-1.999 0.828,-1.027 0,0"/>
                </g>
                <g transform="translate(228.62,138.9631)">
                    <path style="fill:#000000;fill-opacity:1;fill-rule:nonzero;stroke:none" d="m 0,0 c -1.307,-1.404 -2.174,-3.852 -2.174,-6.636 0,-4.357 2.12,-7.889 4.734,-7.889 1.67,0 3.138,1.442 3.981,3.62 -0.738,-0.792 -1.617,-1.252 -2.56,-1.252 -2.614,0 -4.733,3.532 -4.733,7.888 0,1.573 0.276,3.039 0.752,4.269"/>
                </g>
                <g transform="translate(76.7012,155.4745)">
                    <path style="fill:#000000;fill-opacity:1;fill-rule:nonzero;stroke:none" d="m 0,0 c -0.295,-0.443 -0.796,-0.691 -1.259,-0.922 -0.506,-0.253 -1.027,-0.504 -1.454,-0.882 v 4.03 h 1.18 c 0.661,0 1.389,-0.203 1.65,-0.882 C 0.276,0.93 0.249,0.374 0,0 M 0.062,3.064 C -0.535,3.351 -1.18,3.385 -1.829,3.385 H -3.958 V -4.63 h 1.245 c 0,0.454 -0.03,0.925 0.165,1.349 0.313,0.682 1.045,1.01 1.684,1.319 0.684,0.331 1.443,0.655 1.898,1.296 0.402,0.569 0.512,1.323 0.395,2.002 C 1.294,2.113 0.762,2.727 0.062,3.064"/>
                </g>
                <g transform="translate(85.9055,153.853)">
                    <path style="fill:#000000;fill-opacity:1;fill-rule:nonzero;stroke:none" d="m 0,0 c -0.732,0.743 -1.856,1.003 -2.867,0.841 v 1.31 c 0,0.241 -0.006,0.482 0.056,0.718 0.119,0.451 0.462,0.824 0.906,0.973 0.463,0.156 0.999,0.086 1.392,-0.207 0.394,-0.295 0.576,-0.747 0.581,-1.231 0.003,-0.376 0,-0.752 0,-1.128 V -0.078 C 0.045,-0.052 0.024,-0.024 0,0 M 0.012,4.784 C -1.066,5.394 -2.612,5.214 -3.446,4.274 -3.851,3.818 -4.057,3.231 -4.093,2.627 -4.102,2.474 -4.1,-3.009 -4.1,-3.009 h 1.233 v 2.655 c 0.726,0.092 1.539,0.022 2.148,-0.42 0.546,-0.397 0.786,-1.021 0.787,-1.68 0,-0.185 0,-0.555 0,-0.555 H 1.301 V 2.366 C 1.3,3.352 0.895,4.285 0.012,4.784"/>
                </g>
                <g transform="translate(93.8031,157.7001)">
                    <path style="fill:#000000;fill-opacity:1;fill-rule:nonzero;stroke:none" d="M 0,0 C 0.793,0 1.594,-0.387 1.681,-1.254 1.722,-1.671 1.631,-2.084 1.353,-2.405 1.05,-2.755 0.597,-2.966 0.187,-3.164 -0.31,-3.403 -0.81,-3.653 -1.221,-4.027 V 0 Z m 1.88,-3.878 c -0.142,0.076 -0.294,0.138 -0.454,0.189 0.396,0.218 0.788,0.485 1.065,0.848 0.256,0.336 0.403,0.724 0.449,1.143 C 3.036,-0.819 2.748,0.018 2.025,0.555 1.061,1.27 -0.157,1.159 -1.289,1.159 h -1.177 v -8.015 h 1.245 c 0,0.238 -0.008,0.477 0.003,0.715 0.025,0.53 0.258,1.041 0.721,1.324 0.452,0.277 1.07,0.309 1.553,0.093 C 1.542,-4.942 1.857,-5.409 1.937,-5.929 1.983,-6.232 1.96,-6.55 1.96,-6.856 h 1.258 c 0,0.44 0.024,0.888 -0.073,1.321 -0.161,0.712 -0.621,1.313 -1.265,1.657"/>
                </g>
                <g transform="translate(100.8927,157.737)">
                    <path style="fill:#000000;fill-opacity:1;fill-rule:nonzero;stroke:none" d="M 0,0 C 0.406,0.108 0.826,0.159 1.245,0.185 V 1.122 H 0 Z"/>
                </g>
                <g transform="translate(100.8927,157.0342)">
                    <path style="fill:#000000;fill-opacity:1;fill-rule:nonzero;stroke:none" d="M 0,0 V -6.19 H 1.245 V 0.185 C 0.827,0.167 0.405,0.106 0,0"/>
                </g>
                <g transform="translate(110.4487,154.6914)">
                    <path style="fill:#000000;fill-opacity:1;fill-rule:nonzero;stroke:none" d="m 0,0 c -0.446,0.351 -0.982,0.552 -1.51,0.745 -0.489,0.179 -1.058,0.368 -1.412,0.772 -0.327,0.373 -0.254,0.963 0.083,1.302 0.348,0.35 0.908,0.428 1.367,0.283 0.518,-0.164 0.831,-0.631 0.831,-1.166 h 1.233 c 0,0.587 -0.189,1.152 -0.593,1.585 C -0.392,3.94 -0.932,4.189 -1.497,4.263 -2.084,4.34 -2.692,4.264 -3.211,3.968 -3.698,3.691 -4.11,3.251 -4.284,2.712 -4.45,2.196 -4.414,1.552 -4.148,1.074 c 0.295,-0.532 0.83,-0.852 1.375,-1.085 0.592,-0.253 1.276,-0.408 1.806,-0.786 0.213,-0.152 0.391,-0.348 0.454,-0.608 0.062,-0.254 0.04,-0.542 -0.079,-0.777 -0.288,-0.572 -1.004,-0.747 -1.591,-0.635 -0.658,0.127 -1.134,0.676 -1.134,1.35 h -1.221 c 0,-0.652 0.212,-1.267 0.679,-1.732 0.463,-0.46 1.104,-0.709 1.749,-0.761 0.675,-0.054 1.373,0.083 1.932,0.479 0.515,0.365 0.862,0.93 0.929,1.56 C 0.829,-1.186 0.592,-0.465 0,0"/>
                </g>
                <g transform="translate(122.0513,154.5188)">
                    <path style="fill:#000000;fill-opacity:1;fill-rule:nonzero;stroke:none" d="M 0,0 C 0.275,0.342 0.544,0.703 0.726,1.105 0.906,1.502 0.97,1.941 0.922,2.374 0.83,3.198 0.26,3.881 -0.483,4.221 -1.242,4.568 -2.199,4.551 -2.942,4.171 -3.692,3.788 -4.23,3.056 -4.275,2.203 -4.321,1.332 -3.916,0.561 -3.23,0.037 l 0.702,0.9 C -2.78,1.178 -2.98,1.47 -3.037,1.819 c -0.056,0.337 0.002,0.678 0.207,0.955 0.402,0.544 1.21,0.708 1.807,0.408 0.298,-0.15 0.549,-0.41 0.656,-0.729 C -0.255,2.12 -0.308,1.739 -0.45,1.424 -0.594,1.106 -0.822,0.834 -1.038,0.564 -1.87,-0.477 -2.703,-1.518 -3.535,-2.559 -3.832,-2.931 -4.129,-3.303 -4.427,-3.674 h 5.635 v 1.146 h -3.232 z"/>
                </g>
                <g transform="translate(133.4877,153.6989)">
                    <path style="fill:#000000;fill-opacity:1;fill-rule:nonzero;stroke:none" d="m 0,0 c -0.486,-1.142 -1.634,-1.876 -2.878,-1.801 -1.205,0.072 -2.252,0.936 -2.601,2.084 -0.359,1.179 0.067,2.496 1.046,3.243 0.982,0.749 2.373,0.776 3.388,0.073 C 0.09,2.813 0.541,1.273 0,0 M 0.277,4.088 C -0.964,5.301 -2.909,5.628 -4.486,4.9 -6.075,4.166 -7.032,2.479 -6.867,0.739 c 0.162,-1.705 1.437,-3.166 3.093,-3.586 1.68,-0.426 3.524,0.201 4.53,1.627 C 1.768,0.214 1.738,2.226 0.682,3.628 0.559,3.791 0.423,3.945 0.277,4.088"/>
                </g>
                <g transform="translate(142.9142,154.5188)">
                    <path style="fill:#000000;fill-opacity:1;fill-rule:nonzero;stroke:none" d="M 0,0 C 0.275,0.342 0.544,0.703 0.726,1.105 0.906,1.502 0.97,1.941 0.922,2.374 0.829,3.198 0.26,3.881 -0.483,4.221 -1.242,4.568 -2.199,4.551 -2.942,4.171 -3.692,3.788 -4.23,3.056 -4.275,2.203 -4.321,1.332 -3.916,0.561 -3.231,0.037 l 0.703,0.9 C -2.78,1.178 -2.98,1.47 -3.037,1.819 c -0.056,0.337 0.002,0.678 0.207,0.955 0.402,0.544 1.21,0.708 1.807,0.408 0.298,-0.15 0.549,-0.41 0.656,-0.729 C -0.256,2.12 -0.308,1.739 -0.45,1.424 -0.594,1.106 -0.822,0.834 -1.038,0.564 l -2.497,-3.123 c -0.297,-0.372 -0.594,-0.744 -0.892,-1.115 h 5.635 v 1.146 h -3.232 z"/>
                </g>
                <g transform="translate(151.693,156.7137)">
                    <path style="fill:#000000;fill-opacity:1;fill-rule:nonzero;stroke:none" d="m 0,0 v -2.716 c -0.593,0.422 -1.334,0.55 -1.954,0.922 -0.536,0.321 -0.706,0.881 -0.709,1.475 -0.003,0.58 0,2.464 0,2.464 h -1.246 c 0,0 -0.001,-1.668 0,-2.502 10e-4,-0.854 0.212,-1.689 0.911,-2.239 0.431,-0.339 0.95,-0.547 1.463,-0.727 0.459,-0.161 0.946,-0.362 1.26,-0.749 C -0.027,-4.377 0,-4.742 0,-5.118 V -5.869 H 1.196 V 0 Z"/></g><g transform="translate(105.6869,136.5026)">
                    <path style="fill:#000000;fill-opacity:1;fill-rule:evenodd;stroke:none" d="m 0,0 c -3.028,0 -5.483,-2.455 -5.483,-5.483 0,-3.029 2.455,-5.484 5.483,-5.484 3.029,0 5.484,2.455 5.484,5.484 C 5.484,-2.455 3.029,0 0,0 m 6.581,-5.483 c 0,-3.634 -2.947,-6.582 -6.581,-6.582 -3.635,0 -6.58,2.948 -6.58,6.582 0,3.634 2.945,6.58 6.58,6.58 3.634,0 6.581,-2.946 6.581,-6.58"/>
                </g>
                <g transform="translate(119.9453,136.5026)">
                    <path style="fill:#000000;fill-opacity:1;fill-rule:evenodd;stroke:none" d="m 0,0 c -3.029,0 -5.483,-2.455 -5.483,-5.483 0,-3.029 2.454,-5.484 5.483,-5.484 3.029,0 5.484,2.455 5.484,5.484 C 5.484,-2.455 3.029,0 0,0 m 6.581,-5.483 c 0,-3.634 -2.947,-6.582 -6.581,-6.582 -3.634,0 -6.58,2.948 -6.58,6.582 0,3.634 2.946,6.58 6.58,6.58 3.634,0 6.581,-2.946 6.581,-6.58"/>
                </g>
                <g transform="translate(98.5595,143.63)">
                    <path style="fill:#000000;fill-opacity:1;fill-rule:evenodd;stroke:none" d="m 0,0 c -3.635,0 -6.581,-2.945 -6.581,-6.579 0,-3.634 2.946,-6.58 6.581,-6.58 0.192,0 0.38,0.011 0.569,0.026 -0.013,0.172 -0.022,0.346 -0.022,0.522 0,0.196 0.011,0.387 0.027,0.578 -0.189,-0.018 -0.38,-0.028 -0.574,-0.028 -3.029,0 -5.485,2.453 -5.485,5.482 0,3.029 2.456,5.485 5.485,5.485 3.028,0 5.483,-2.456 5.483,-5.485 0,-2.432 -1.583,-4.493 -3.777,-5.211 -0.04,-0.268 -0.062,-0.543 -0.062,-0.821 0,-0.114 0.004,-0.225 0.011,-0.337 2.833,0.736 4.924,3.309 4.924,6.369 C 6.579,-2.945 3.634,0 0,0"/>
                </g>
                <g transform="translate(127.0738,143.6313)">
                    <path style="fill:#000000;fill-opacity:1;fill-rule:evenodd;stroke:none" d="m 0,0 c -3.457,0 -6.29,-2.666 -6.557,-6.056 0.37,-0.032 0.734,-0.094 1.085,-0.187 0.174,2.872 2.557,5.147 5.472,5.147 3.03,0 5.485,-2.455 5.485,-5.483 0,-3.03 -2.455,-5.483 -5.485,-5.483 -2.748,0 -5.027,2.023 -5.421,4.661 -0.362,0.118 -0.742,0.199 -1.133,0.241 0.294,-3.361 3.116,-6.001 6.554,-6.001 3.634,0 6.58,2.947 6.58,6.582 C 6.58,-2.946 3.634,0 0,0"/>
                </g>
                <g transform="translate(112.8166,143.6313)">
                    <path style="fill:#000000;fill-opacity:1;fill-rule:evenodd;stroke:none" d="m 0,0 c -3.459,0 -6.292,-2.67 -6.559,-6.056 0.372,-0.033 0.734,-0.096 1.087,-0.187 0.174,2.872 2.556,5.147 5.472,5.147 3.029,0 5.483,-2.455 5.483,-5.483 0,-2.433 -1.583,-4.494 -3.776,-5.212 -0.039,-0.269 -0.062,-0.543 -0.062,-0.821 0,-0.114 0.003,-0.225 0.011,-0.338 2.832,0.736 4.924,3.31 4.924,6.371 C 6.58,-2.946 3.635,0 0,0"/></g><g transform="translate(113.365,131.0193)">
                    <path style="fill:#000000;fill-opacity:1;fill-rule:evenodd;stroke:none" d="M 0,0 C 0,0.196 0.01,0.387 0.027,0.578 -0.163,0.559 -0.354,0.55 -0.548,0.55 c -2.75,0 -5.027,2.023 -5.424,4.661 -0.362,0.119 -0.74,0.199 -1.13,0.24 0.293,-3.36 3.115,-5.999 6.554,-5.999 0.192,0 0.381,0.01 0.569,0.026 C 0.007,-0.35 0,-0.176 0,0"/>
                </g>
                <g transform="translate(115.6404,172.5853)">
                    <path style="fill:#000000;fill-opacity:1;fill-rule:nonzero;stroke:none" d="M 0,0 C -0.688,0.256 -1.845,0.279 -2.824,-0.517 -3.803,0.279 -4.96,0.256 -5.649,0 c -0.575,-0.214 -1.026,-0.357 -1.874,-0.35 0.84,-1.75 2.629,-2.958 4.699,-2.958 2.07,0 3.858,1.208 4.698,2.958 C 1.026,-0.357 0.575,-0.214 0,0"/>
                </g>
                <g transform="translate(112.8167,216.5641)">
                    <path style="fill:#000000;fill-opacity:1;fill-rule:nonzero;stroke:none" d="m 0,0 c -14.164,0 -25.647,-11.483 -25.647,-25.647 0,-12.142 8.438,-22.313 19.77,-24.971 -9.005,4.818 -12.677,15.864 -8.335,25.118 0.702,-3.654 3.084,-6.91 6.644,-8.6 -4.643,10.858 -1.224,23.623 8.357,30.683 -1.885,-6.454 1.01,-12.359 7.219,-16.817 7.103,-5.099 7.403,-15.504 1.135,-21.128 2.489,0.579 4.806,1.95 6.536,4.049 -1.067,-5.5 -4.516,-10.476 -9.803,-13.305 11.332,2.658 19.77,12.829 19.77,24.971 C 25.646,-11.483 14.164,0 0,0"/>
                </g>
            </g>
        </g>
    </g>
</svg>