<?xml version="1.0" encoding="UTF-8"?>
<svg version="1.0" xmlns="http://www.w3.org/2000/svg" xmlns:xlink="http://www.w3.org/1999/xlink" viewBox="0 0 284 170">
	<style type="text/css">
		.st0 {fill:none;}
		.st1 {fill:#00004D;}
	</style>
	<rect x="-51.7" y="-51" class="st0" width="386.8" height="271.5"/>
	<g>
		<path class="st1" d="M146.1,88.6c-1.4-0.5-3.7-0.6-5.7,1c-2-1.6-4.3-1.6-5.7-1c-1.2,0.4-2.1,0.7-3.8,0.7c1.7,3.5,5.3,6,9.5,6c4.2,0,7.8-2.4,9.5-6C148.2,89.3,147.3,89,146.1,88.6z"/>
		<path class="st1" d="M140.4,0c-28.5,0-51.7,23.1-51.7,51.7c0,24.5,17,45,39.8,50.3C110.4,92.3,103,70,111.8,51.4c1.4,7.4,6.2,13.9,13.4,17.3c-9.4-21.9-2.5-47.6,16.8-61.8c-3.8,13,2,24.9,14.5,33.9c14.3,10.3,14.9,31.2,2.3,42.6c5-1.2,9.7-3.9,13.2-8.2c-2.1,11.1-9.1,21.1-19.8,26.8c22.8-5.4,39.8-25.8,39.8-50.3C192.1,23.1,168.9,0,140.4,0z"/>
		<path class="st1" d="M8.6,69h29.6c0,5,3.2,8,8.5,8c4.7,0,7.9-2.6,7.9-5.9c0-12.1-45.9-3.6-45.9-39C8.6,15,23.2,0,44.8,0c22.6,0,37.9,13.2,37.9,32.5H53.2c0-4.7-3-7.6-8.3-7.6c-3.9,0-6.7,2.4-6.7,5.4c0,12.1,45.9,3.8,45.9,39.6c0,17.7-14.7,31.9-37,31.9C24.2,102,8.6,88.7,8.6,69z"/>
		<path class="st1" d="M230,80.5V102h-30.6V0H230c27,0,44.9,16.5,44.9,41.2c0,23.6-16.8,39.9-40.8,39.9C231.3,81.1,230,80.5,230,80.5z M230,28.1v25.6c1.8,0.4,3.5,0.6,5.3,0.6c7.7,0,12.7-5.1,12.7-13.2s-5.5-13-14.3-13H230z"/>
	</g>
	<g>
		<path class="st1" d="M0,135.2h4.5c0,1.4,1,2.4,2.5,2.4c1.4,0,2.3-0.8,2.3-1.9c0-3.3-9.2-1.5-9.2-8.3c0-3.2,2.7-5.9,6.6-5.9c4.1,0,6.9,2.5,6.9,6.1H9.1c0-1.3-0.9-2.1-2.3-2.1c-1.1,0-2,0.8-2,1.7c0,3.2,9.2,1.5,9.2,8.4c0,3.4-2.8,6-6.8,6C3,141.5,0,139.1,0,135.2z"/>
		<path class="st1" d="M29,141.2H17.7v-19.4H29v4.1h-6.8v5.5c1.3-1.3,3.2-1.9,5.4-1.9h0.5v4h-0.7c-2.9,0-4.9,1.4-5.3,3.7H29C29,137.1,29,141.2,29,141.2z"/>
		<path class="st1" d="M37.6,126.6v14.6h-4.6v-19.4h2.3c3.5,0,6.4,1.1,8.1,3.2c1.8-2.1,4.6-3.2,8.2-3.2h2.3v19.4h-4.7v-14.6c-2.2,0.1-3.5,1.5-3.5,3.9v5.2h-4.5v-5.2C41.1,128.2,39.8,126.8,37.6,126.6z"/>
		<path class="st1" d="M62.7,136.1v5.1h-4.6v-12.6c0-4.3,2.9-7.2,7.2-7.2s7.2,2.9,7.2,7.2v12.6h-4.6v-0.4c0-2.8-1.8-4.6-4.8-4.6L62.7,136.1L62.7,136.1z M67.8,133.6v-5c0-1.6-1.1-2.7-2.6-2.7c-1.5,0-2.6,1.1-2.6,2.7v3.4h0.1C64.9,131.9,66.6,132.5,67.8,133.6z"/>
		<path class="st1" d="M76.7,141.2v-19.4h4.7v19.4H76.7z"/>
		<path class="st1" d="M95.7,137.6c-2.1-2-3.8-4.1-5.1-6.4v9.9h-4.7v-19.4h4.4c1.3,3.8,3,6.8,5.4,9.7v-9.7h4.7v19.4h-4.7V137.6z"/>
		<path class="st1" d="M116.2,141.2h-11.4v-19.4h11.4v4.1h-6.8v5.5c1.3-1.3,3.2-1.9,5.4-1.9h0.5v4h-0.7c-2.9,0-4.9,1.4-5.4,3.7h6.9L116.2,141.2L116.2,141.2z"/>
		<path class="st1" d="M136.7,121.4c5.8,0,10.4,4.4,10.4,10.1c0,5.6-4.5,10.1-10.4,10.1s-10.4-4.4-10.4-10.1C126.3,125.8,130.9,121.4,136.7,121.4z M136.7,137.1c3.1,0,5.6-2.5,5.6-5.7s-2.4-5.7-5.6-5.7s-5.6,2.5-5.6,5.7C131.2,134.6,133.6,137.1,136.7,137.1z"/>
		<path class="st1" d="M150.1,141.2v-19.4h4.7V137h5.9v4.2H150.1z"/>
		<path class="st1" d="M171.9,141.2H167l1.4-5.1c-4.1-0.6-6.7-3.6-6.7-8.3c0-1.8,0.3-3.9,1-6.1h4.5c-0.7,2.5-0.9,4.3-0.9,5.9c0,2.5,1.3,4,3.4,4.1l2.7-10.1h4.7L171.9,141.2z"/>
		<path class="st1" d="M183.6,126.6v14.6H179v-19.4h2.3c3.5,0,6.4,1.1,8.1,3.2c1.8-2.1,4.6-3.2,8.2-3.2h2.3v19.4h-4.7v-14.6c-2.2,0.1-3.5,1.5-3.5,3.9v5.2h-4.5v-5.2C187.2,128.2,185.9,126.8,183.6,126.6z"/>
		<path class="st1" d="M209,137.1v4.1h-4.7v-19.4h6.1c5,0,8.5,3.2,8.5,7.8c0,4.6-3.3,7.7-7.8,7.7C210.4,137.3,209.7,137.2,209,137.1zM209,126.1v6.8c0.6,0.2,1.1,0.3,1.7,0.3c2.1,0,3.5-1.4,3.5-3.6c0-2.1-1.5-3.5-3.7-3.5H209z"/>
		<path class="st1" d="M221.6,141.2v-19.4h4.7v19.4H221.6z"/>
		<path class="st1" d="M250.2,141.2h-10.8c-5.9,0-10.3-4.3-10.3-9.9s4.5-9.9,10.2-9.9c5.8,0,10.2,4.1,10.2,9.3c0,2.6-1.2,4.9-3.1,6.3l3.9-0.1L250.2,141.2L250.2,141.2z M233.9,131.3c0,3.1,2.4,5.5,5.4,5.5c3,0,5.4-2.4,5.4-5.5c0-3.1-2.4-5.5-5.4-5.5S233.9,128.2,233.9,131.3z"/>
		<path class="st1" d="M263.1,134.4v-12.6h4.7v12.6c0,4.3-2.8,7.1-7.2,7.1c-4.4,0-7.2-2.8-7.2-7.1v-12.6h4.7v12.6c0,1.5,1,2.6,2.5,2.6C262.1,137,263.1,135.9,263.1,134.4z"/>
		<path class="st1" d="M283.5,141.2h-11.4v-19.4h11.4v4.1h-6.8v5.5c1.3-1.3,3.2-1.9,5.4-1.9h0.5v4H282c-2.9,0-4.9,1.4-5.4,3.7h6.9V141.2z"/>
		<path class="st1" d="M32.1,169.5c-4.6,0-7.9-2.8-7.9-6.7c0-1.9,0.8-3.5,2.2-4.6c-0.6-0.8-0.9-1.8-0.9-2.9c0-3.4,2.8-5.9,6.7-5.9c3.8,0,6.6,2.6,6.6,6.2h-4.2c0-1.3-1-2.2-2.4-2.2c-1.3,0-2.3,0.9-2.3,2.2c0,0.4,0.1,0.8,0.3,1.1c0.5-0.1,1.1-0.1,1.7-0.1h0.6v3.6h-0.6c-1.8,0-3,1.1-3,2.6c0,1.6,1.4,2.8,3.3,2.8c2.1,0,3.5-1.2,3.5-3v-0.2h-1.4v-3.8h7.4v3.8h-1.6v0.2C40.1,166.7,36.8,169.5,32.1,169.5z"/>
		<path class="st1" d="M56.5,165.1v4.1h-4.7v-19.4h6.1c5.1,0,8.5,3.2,8.5,7.8c0,4.6-3.3,7.7-7.8,7.7C57.9,165.3,57.2,165.3,56.5,165.1z M56.5,154.1v6.8c0.6,0.2,1.1,0.3,1.7,0.3c2.1,0,3.5-1.4,3.5-3.6c0-2.1-1.5-3.5-3.7-3.5H56.5z"/>
		<path class="st1" d="M74.4,164.2v5.1h-4.6v-12.6c0-4.3,2.9-7.2,7.2-7.2c4.3,0,7.2,2.9,7.2,7.2v12.6h-4.6v-0.4c0-2.8-1.8-4.6-4.8-4.6L74.4,164.2L74.4,164.2z M79.6,161.6v-5c0-1.6-1.1-2.7-2.6-2.7c-1.5,0-2.6,1.1-2.6,2.7v3.4h0.1C76.6,160,78.3,160.6,79.6,161.6z"/>
		<path class="st1" d="M88.4,149.8h6.4c4.8,0,7.9,2.5,7.9,6.2c0,2.9-1.5,4.4-3.3,5.6c2.6,1.1,4.1,3.3,4.1,6.3v1.4h-4.8v-1.6c0-1.8-1.1-2.9-2.8-2.9c-1.7,0-2.8,1.2-2.8,2.9v1.6h-4.6V149.8z M93.1,161.4c2.1-1.9,5-2.1,5-4.8c0-1.6-1.2-2.5-3.1-2.5h-1.9V161.4z"/>
		<path class="st1" d="M111.7,164.2v5.1h-4.6v-12.6c0-4.3,2.9-7.2,7.2-7.2s7.2,2.9,7.2,7.2v12.6h-4.6v-0.4c0-2.8-1.8-4.6-4.8-4.6L111.7,164.2L111.7,164.2z M116.9,161.6v-5c0-1.6-1.1-2.7-2.6-2.7s-2.6,1.1-2.6,2.7v3.4h0.1C114,160,115.7,160.6,116.9,161.6z"/>
		<path class="st1" d="M125.8,169.2v-19.4h4.7V165h5.9v4.2H125.8z"/>
		<path class="st1" d="M147.6,169.2h-4.9l1.4-5.1c-4.1-0.6-6.7-3.6-6.7-8.3c0-1.8,0.3-3.9,1-6.1h4.5c-0.7,2.5-0.9,4.3-0.9,5.9c0,2.5,1.3,4,3.4,4.1l2.7-10.1h4.7L147.6,169.2z"/>
		<path class="st1" d="M159.3,154.7v14.6h-4.6v-19.4h2.3c3.5,0,6.4,1.1,8.1,3.2c1.8-2.1,4.6-3.2,8.2-3.2h2.3v19.4h-4.7v-14.6c-2.2,0.1-3.5,1.5-3.5,3.9v5.2h-4.5v-5.2C162.9,156.2,161.6,154.8,159.3,154.7z"/>
		<path class="st1" d="M184.7,165.1v4.1H180v-19.4h6.1c5.1,0,8.5,3.2,8.5,7.8c0,4.6-3.3,7.7-7.8,7.7C186,165.3,185.4,165.3,184.7,165.1z M184.7,154.1v6.8c0.6,0.2,1.1,0.3,1.7,0.3c2.1,0,3.5-1.4,3.5-3.6c0-2.1-1.5-3.5-3.7-3.5H184.7z"/>
		<path class="st1" d="M197.3,169.2v-19.4h4.7v19.4H197.3z"/>
		<path class="st1" d="M225.9,169.2h-10.8c-5.9,0-10.3-4.3-10.3-9.9s4.5-9.9,10.2-9.9c5.8,0,10.2,4.1,10.2,9.3c0,2.6-1.2,4.9-3.1,6.3l3.9-0.1L225.9,169.2L225.9,169.2z M209.6,159.3c0,3.1,2.4,5.5,5.4,5.5c3,0,5.4-2.4,5.4-5.5c0-3.1-2.4-5.5-5.4-5.5S209.6,156.2,209.6,159.3z"/>
		<path class="st1" d="M238.8,162.4v-12.6h4.7v12.6c0,4.3-2.8,7.1-7.2,7.1c-4.4,0-7.2-2.8-7.2-7.1v-12.6h4.7v12.6c0,1.5,1,2.6,2.5,2.6C237.8,165,238.8,164,238.8,162.4z"/>
		<path class="st1" d="M259.2,169.2h-11.4v-19.4h11.4v4.1h-6.8v5.5c1.3-1.3,3.2-1.9,5.4-1.9h0.5v4h-0.7c-2.9,0-4.9,1.4-5.3,3.7h6.9L259.2,169.2L259.2,169.2z"/>
	</g>
</svg>