<?xml version="1.0" encoding="UTF-8"?>
<svg version="1.0" xmlns="http://www.w3.org/2000/svg" viewBox="0 0 379 431">
    <path d="M84.0107 116.266H0.454712L48.2747 53.1019C52.9374 46.9059 54.6614 43.4632 54.6614 38.8165C54.6614 31.5885 48.6187 25.9085 40.8507 25.9085C32.9107 25.9085 26.8667 31.4165 26.8667 38.8165C26.8667 43.2912 28.5934 46.7339 32.392 50.0032L17.7187 69.7965C6.32538 62.0512 0.800044 51.7245 0.800044 39.3325C0.800044 18.3352 18.064 2.50188 40.8507 2.50188C63.6374 2.50188 80.9014 17.6472 80.9014 37.9565C80.9014 47.4219 77.7947 54.4792 68.1254 67.2152L49.3094 91.9979H84.0107V116.266Z" fill="#00004D"/>
    <path d="M153.776 103.311C152.172 102.714 149.474 102.661 147.193 104.517C144.912 102.661 142.214 102.714 140.61 103.311C139.27 103.81 138.218 104.143 136.242 104.127C138.2 108.206 142.369 111.021 147.193 111.021C152.017 111.021 156.186 108.206 158.144 104.127C156.168 104.143 155.116 103.81 153.776 103.311Z" fill="#00004D"/>
    <path d="M147.194 0.808072C114.181 0.808072 87.4171 27.5721 87.4171 60.5854C87.4171 88.8841 107.084 112.591 133.497 118.785C112.508 107.556 103.95 81.8107 114.07 60.2427C115.705 68.7587 121.258 76.3481 129.556 80.2867C118.734 54.9787 126.702 25.2267 149.033 8.77207C144.64 23.8147 151.386 37.5774 165.86 47.9681C182.413 59.8534 183.114 84.1041 168.504 97.2134C174.306 95.8614 179.706 92.6667 183.738 87.7747C181.252 100.593 173.213 112.192 160.889 118.785C187.302 112.591 206.968 88.8841 206.968 60.5854C206.968 27.5721 180.208 0.808072 147.194 0.808072Z" fill="#00004D"/>
    <path d="M378.405 430.108H352.484V419.444C352.484 391.406 300.473 407.058 300.473 356.145V318.302H327.424V354.768C327.424 372.829 340.985 372.141 352.484 379.537V346.856H378.405V430.108Z" fill="#00004D"/>
    <path d="M296.268 430.108H212.712L260.532 366.944C265.193 360.748 266.917 357.305 266.917 352.658C266.917 345.43 260.876 339.75 253.108 339.75C245.168 339.75 239.124 345.258 239.124 352.658C239.124 357.133 240.85 360.576 244.649 363.845L229.976 383.638C218.582 375.893 213.057 365.566 213.057 353.174C213.057 332.177 230.321 316.344 253.108 316.344C275.894 316.344 293.158 331.489 293.158 351.798C293.158 361.264 290.052 368.321 280.382 381.057L261.566 405.84H296.268V430.108Z" fill="#00004D"/>
    <path d="M39.7775 153.353V211.476H15.7282V153.475C10.5575 153.837 5.62549 154.564 0.453491 155.533V133.859C7.54816 132.284 18.1322 131.316 27.7508 131.316C37.3695 131.316 47.7122 132.284 55.0482 133.859V155.533C48.9162 154.442 44.4682 153.716 39.7775 153.353Z" fill="#FF5757"/>
    <path d="M107.647 211.476H59.3074V132.768H107.647V153.716H82.394V168.248C87.4447 164.008 94.178 161.708 102.234 161.708H104.638V182.293H101.03C92.7367 182.293 86.4834 185.321 83.594 190.528H107.647V211.476Z" fill="#FF5757"/>
    <path d="M139.809 176.481C145.819 170.911 153.157 169.7 153.157 162.315C153.157 157.955 149.909 155.169 144.018 155.169H139.809V176.481ZM115.759 132.768H143.417C164.218 132.768 177.686 143.06 177.686 158.56C177.686 169.58 172.277 175.997 165.663 180.599C175.521 185.199 181.173 194.16 181.173 206.148V211.476H155.923V204.332C155.923 199.124 152.797 195.976 147.865 195.976C142.935 195.976 139.809 199.124 139.809 204.332V211.476H115.759V132.768Z" fill="#FF5757"/>
    <path d="M210.893 176.481C216.905 170.911 224.241 169.7 224.241 162.315C224.241 157.955 220.993 155.169 215.102 155.169H210.893V176.481ZM186.843 132.768H214.501C235.302 132.768 248.77 143.06 248.77 158.56C248.77 169.58 243.361 175.997 236.747 180.599C246.605 185.199 252.257 194.16 252.257 206.148V211.476H227.007V204.332C227.007 199.124 223.881 195.976 218.949 195.976C214.019 195.976 210.893 199.124 210.893 204.332V211.476H186.843V132.768Z" fill="#FF5757"/>
    <path d="M306.268 211.476H257.928V132.768H306.268V153.716H281.015V168.248C286.065 164.008 292.799 161.708 300.855 161.708H303.259V182.293H299.651C291.357 182.293 285.104 185.321 282.215 190.528H306.268V211.476Z" fill="#FF5757"/>
    <path d="M24.5031 248.887V280.854H24.7417C34.1217 280.854 40.4964 274.195 40.4964 264.871C40.4964 255.547 34.1217 248.887 24.7417 248.887H24.5031ZM0.453735 225.516H20.5364C46.7497 225.516 65.3857 241.258 65.3857 264.871C65.3857 288.604 46.7497 304.224 20.5364 304.224H0.453735V225.516Z" fill="#FF5757"/>
    <path d="M118.902 304.224H70.5616V225.516H118.902V246.464H93.6483V260.996C98.6989 256.756 105.432 254.456 113.488 254.456H115.892V275.042H112.284C103.991 275.042 97.7376 278.07 94.8482 283.276H118.902V304.224Z" fill="#FF5757"/>
    <path d="M148.393 304.224H145.145V281.823H148.393C154.284 281.823 157.41 279.28 157.41 274.436V247.312H145.145V225.516H181.221V273.831C181.221 293.204 169.194 304.224 148.393 304.224Z" fill="#FF5757"/>
    <path d="M238.221 304.224H189.881V225.516H238.221V246.464H212.967V260.996C218.018 256.756 224.751 254.456 232.807 254.456H235.211V275.042H231.603C223.31 275.042 217.057 278.07 214.167 283.276H238.221V304.224Z" fill="#FF5757"/>
    <path d="M284.403 274.557V225.516H308.695V274.557C308.695 293.569 296.668 305.678 277.547 305.678C258.431 305.678 246.404 293.569 246.404 274.557V225.516H270.696V274.557C270.696 279.158 273.338 282.065 277.547 282.065C281.756 282.065 284.403 279.158 284.403 274.557Z" fill="#FF5757"/>
    <path d="M344.735 275.405L336.679 304.225H311.067L324.172 262.206L311.789 225.516H336.8L345.099 251.43L353.513 225.516H377.684L365.297 262.206L378.407 304.225H351.949L344.735 275.405Z" fill="#FF5757"/>
</svg>