<?xml version="1.0" encoding="UTF-8"?>
<svg version="1.0" xmlns="http://www.w3.org/2000/svg" viewBox="0 0 168 192">
    <path d="M17.5558 94.4109C21.9957 94.4109 25.5817 92.7484 27.9348 89.7978V93.7677H37.6202V78.4267H26.5435C25.6881 81.9131 22.6394 84.3273 18.947 84.3273C14.4516 84.3273 11.1348 80.8938 11.1348 76.3347C11.1348 71.7751 14.4516 68.3431 18.947 68.3431C22.3178 68.3431 25.2062 70.2733 26.3832 73.3307H37.4599C36.0147 64.4807 28.4706 58.259 18.947 58.259C8.2459 58.259 0.0585938 66.0898 0.0585938 76.3347C0.0585938 86.5796 7.60267 94.4109 17.5558 94.4109Z" fill="#FAB900"/>
    <path d="M62.7304 84.4881H52.0282C53.3131 82.1813 56.0962 80.8404 59.7865 80.8404H61.391V71.7221H60.3213C56.7368 71.7221 53.7411 72.7414 51.4934 74.6182V68.1813H62.7304V58.9022H59.1212L61.1773 55.2689H50.958L49.7568 58.9022H41.2207V93.7676H62.7304V84.4881Z" fill="#FAB900"/>
    <path d="M76.9326 79.2848C78.592 81.9666 80.6255 84.4342 83.2472 86.9547V93.7677H94.0542V58.9023H83.462V73.1166C80.197 68.8256 78.0562 64.3734 76.4527 58.9023H66.3398V93.7677H76.9326V79.2848Z" fill="#FAB900"/>
    <path d="M119.57 84.4881H108.868C110.153 82.1813 112.936 80.8404 116.626 80.8404H118.231V71.7221H117.161C113.577 71.7221 110.58 72.7414 108.333 74.6182V68.1813H119.57V58.9022H115.961L118.017 55.2689H107.798L106.597 58.9022H98.0605V93.7676H119.57V84.4881Z" fill="#FAB900"/>
    <path d="M122.123 80.8414H139.245V71.7231H122.123V80.8414Z" fill="#FAB900"/>
    <path d="M10.7592 119.35V109.909H12.6319C15.2531 109.909 16.6983 111.142 16.6983 113.074C16.6983 116.346 13.4339 116.882 10.7592 119.35ZM22.2639 121.173C25.2062 119.135 27.6132 116.292 27.6132 111.411C27.6132 104.545 21.6201 99.9866 12.3647 99.9866H0.0585938V134.85H10.7592V131.686C10.7592 129.38 12.1505 127.985 14.3437 127.985C16.5385 127.985 17.9293 129.38 17.9293 131.686V134.85H29.1647V132.491C29.1647 127.18 26.6499 123.211 22.2639 121.173Z" fill="#FAB900"/>
    <path d="M48.2973 120.208C46.5299 119.081 44.3911 118.491 41.8763 118.491V113.02C41.8763 110.982 43.1602 109.641 45.0868 109.641C47.0123 109.641 48.2973 110.982 48.2973 113.02V120.208ZM45.0868 99.3428C36.7926 99.3428 31.3359 104.76 31.3359 113.074V134.851H41.8763V127.985C45.8348 127.985 48.2973 130.399 48.2973 134.315V134.851H58.8366V113.074C58.8366 104.76 53.3789 99.3428 45.0868 99.3428Z" fill="#FAB900"/>
    <path d="M60.1035 100.469V110.07C62.4047 109.641 64.5989 109.319 66.9006 109.158V134.851H77.6007V109.104C79.6876 109.265 81.6671 109.587 84.3952 110.07V100.469C81.1318 99.7715 76.5295 99.3425 72.2499 99.3425C67.9692 99.3425 63.2601 99.7715 60.1035 100.469Z" fill="#FAB900"/>
    <path d="M86.3926 134.851H97.1995V99.9862H86.3926V134.851Z" fill="#FAB900"/>
    <path d="M118.492 125.41C114.05 125.41 110.68 121.978 110.68 117.419C110.68 112.86 114.05 109.426 118.492 109.426C122.932 109.426 126.305 112.86 126.305 117.419C126.305 121.978 122.932 125.41 118.492 125.41ZM118.492 99.3425C107.792 99.3425 99.6035 107.174 99.6035 117.419C99.6035 127.663 107.792 135.494 118.492 135.494C129.193 135.494 137.379 127.663 137.379 117.419C137.379 107.174 129.193 99.3425 118.492 99.3425Z" fill="#FAB900"/>
    <path d="M156.944 99.9863V114.201C153.679 109.909 151.539 105.457 149.934 99.9863H139.822V134.851H150.415V120.369C152.074 123.051 154.107 125.518 156.73 128.039V134.851H167.537V99.9863H156.944Z" fill="#FAB900"/>
    <path d="M37.0838 51.5628H0.0585938L21.2487 23.5736C23.314 20.828 24.078 19.3027 24.078 17.2435C24.078 14.0407 21.4008 11.5238 17.9591 11.5238C14.4403 11.5238 11.7621 13.9642 11.7621 17.2435C11.7621 19.2261 12.5276 20.752 14.2107 22.2003L7.7085 30.9712C2.65977 27.5393 0.211695 22.9632 0.211695 17.4721C0.211695 8.1679 7.8616 1.15198 17.9591 1.15198C28.056 1.15198 35.7059 7.86273 35.7059 16.8623C35.7059 21.0566 34.3296 24.1839 30.0448 29.8271L21.7064 40.8092H37.0838V51.5628Z" fill="#00004D"/>
    <path d="M67.9981 45.8225C67.2876 45.558 66.0916 45.5343 65.081 46.3569C64.0704 45.5343 62.8749 45.558 62.1644 45.8225C61.5699 46.0435 61.104 46.1914 60.2285 46.1842C61.0957 47.9916 62.9432 49.2385 65.081 49.2385C67.2188 49.2385 69.0662 47.9916 69.933 46.1842C69.058 46.1914 68.592 46.0435 67.9981 45.8225Z" fill="#00004D"/>
    <path d="M65.0823 0.401367C50.4534 0.401367 38.5938 12.261 38.5938 26.8899C38.5938 39.4303 47.3087 49.9347 59.0127 52.6786C49.7121 47.7034 45.92 36.2953 50.4046 26.7378C51.1295 30.5114 53.5899 33.8745 57.2664 35.6192C52.471 24.4048 56.002 11.2212 65.8976 3.93039C63.9504 10.5959 66.9405 16.6948 73.3533 21.2996C80.6883 26.5657 80.9991 37.3115 74.5247 43.1206C77.0966 42.5221 79.4897 41.1057 81.276 38.9381C80.1735 44.6182 76.6121 49.7579 71.1508 52.6786C82.8548 49.9347 91.5697 39.4303 91.5697 26.8899C91.5697 12.261 79.7111 0.401367 65.0823 0.401367Z" fill="#00004D"/>
    <path d="M167.537 190.633H156.051V185.906C156.051 173.483 133.004 180.419 133.004 157.858V141.089H144.946V157.248C144.946 165.251 150.955 164.946 156.051 168.224V153.742H167.537V190.633Z" fill="#00004D"/>
    <path d="M131.14 190.632H94.1152L115.305 162.643C117.371 159.897 118.135 158.372 118.135 156.313C118.135 153.11 115.457 150.593 112.015 150.593C108.497 150.593 105.819 153.033 105.819 156.313C105.819 158.296 106.584 159.822 108.267 161.27L101.765 170.04C96.7164 166.609 94.2683 162.033 94.2683 156.542C94.2683 147.238 101.918 140.222 112.015 140.222C122.113 140.222 129.763 146.932 129.763 155.932C129.763 160.126 128.386 163.253 124.101 168.897L115.764 179.879H131.14V190.632Z" fill="#00004D"/>
</svg>