<?xml version="1.0" encoding="UTF-8"?>
<svg version="1.0" xmlns="http://www.w3.org/2000/svg" xmlns:xlink="http://www.w3.org/1999/xlink" viewBox="0 0 80 120">
  <defs>
    <style>
      .cls-1, .cls-2, .cls-3, .cls-4, .cls-5, .cls-6, .cls-7, .cls-8, .cls-9, .cls-10, .cls-11, .cls-12, .cls-13, .cls-14, .cls-15, .cls-16, .cls-17, .cls-18, .cls-19, .cls-20, .cls-21, .cls-22, .cls-23, .cls-24, .cls-25, .cls-26, .cls-27, .cls-28, .cls-29, .cls-30, .cls-31, .cls-32 {stroke-width: 0px;}
      .cls-1 {fill: url(#Dégradé_sans_nom_45-22);}
      .cls-2 {fill: url(#Dégradé_sans_nom_45-25);}
      .cls-3 {fill: url(#Dégradé_sans_nom_45-20);}
      .cls-4 {fill: url(#Dégradé_sans_nom_45-23);}
      .cls-5 {fill: url(#Dégradé_sans_nom_45-24);}
      .cls-6 {fill: url(#Dégradé_sans_nom_45-21);}
      .cls-7 {fill: url(#Dégradé_sans_nom_45-18);}
      .cls-8 {fill: url(#Dégradé_sans_nom_45-19);}
      .cls-9 {fill: url(#Dégradé_sans_nom_45-17);}
      .cls-10 {fill: url(#Dégradé_sans_nom_45-12);}
      .cls-11 {fill: url(#Dégradé_sans_nom_45-10);}
      .cls-12 {fill: url(#Dégradé_sans_nom_45-11);}
      .cls-13 {fill: url(#Dégradé_sans_nom_45-15);}
      .cls-14 {fill: url(#Dégradé_sans_nom_45-14);}
      .cls-15 {fill: url(#Dégradé_sans_nom_45-13);}
      .cls-16 {fill: url(#Dégradé_sans_nom_45-16);}
      .cls-17 {fill: url(#Dégradé_sans_nom_45-5);}
      .cls-18 {fill: url(#Dégradé_sans_nom_45-6);}
      .cls-19 {fill: url(#Dégradé_sans_nom_45-4);}
      .cls-20 {fill: url(#Dégradé_sans_nom_45-9);}
      .cls-21 {fill: url(#Dégradé_sans_nom_45-8);}
      .cls-22 {fill: url(#Dégradé_sans_nom_45-7);}
      .cls-23 {fill: url(#Dégradé_sans_nom_45-2);}
      .cls-24 {fill: url(#Dégradé_sans_nom_45-3);}
      .cls-25 {fill: #00a651;}
      .cls-25, .cls-26, .cls-27, .cls-29, .cls-30 {fill-rule: evenodd;}
      .cls-26 {fill: #fcaf17;}
      .cls-27 {fill: #007dc5;}
      .cls-28, .cls-29 {fill: #231f20;}
      .cls-30 {fill: #ee312f;}
      .cls-31 {fill: #fff;}
      .cls-32 {fill: url(#Dégradé_sans_nom_45);}
      .cls-33 {fill: url(#Dégradé_sans_nom_44);}
      .cls-34 {fill: url(#Dégradé_sans_nom_44-3);}
      .cls-35 {fill: url(#Dégradé_sans_nom_44-2);}
    </style>
    <radialGradient id="Dégradé_sans_nom_45" cx="39.1" cy="38.8" fx="39.1" fy="38.8" r="97.8" gradientUnits="userSpaceOnUse">
      <stop offset="0" stop-color="#ee3042"/>
      <stop offset=".1" stop-color="#f15036"/>
      <stop offset=".3" stop-color="#f78823"/>
      <stop offset=".5" stop-color="#fbab17"/>
      <stop offset=".6" stop-color="#fdb913"/>
      <stop offset=".7" stop-color="#fdbc20"/>
      <stop offset=".8" stop-color="#fdc542"/>
      <stop offset=".9" stop-color="#fed37a"/>
      <stop offset="1" stop-color="#ffd990"/>
    </radialGradient>
    <radialGradient id="Dégradé_sans_nom_45-2" cx="39.1" fx="39.1" r="97.8" xlink:href="#Dégradé_sans_nom_45"/>
    <radialGradient id="Dégradé_sans_nom_45-3" cx="39.1" fx="39.1" r="97.8" xlink:href="#Dégradé_sans_nom_45"/>
    <radialGradient id="Dégradé_sans_nom_45-4" cx="39.1" cy="38.8" fx="39.1" fy="38.8" r="97.8" xlink:href="#Dégradé_sans_nom_45"/>
    <radialGradient id="Dégradé_sans_nom_45-5" cx="39.1" fx="39.1" r="97.8" xlink:href="#Dégradé_sans_nom_45"/>
    <radialGradient id="Dégradé_sans_nom_45-6" cx="39.1" cy="38.8" fx="39.1" fy="38.8" r="97.8" xlink:href="#Dégradé_sans_nom_45"/>
    <radialGradient id="Dégradé_sans_nom_45-7" cx="39.1" fx="39.1" r="97.8" xlink:href="#Dégradé_sans_nom_45"/>
    <radialGradient id="Dégradé_sans_nom_45-8" cx="39.1" fx="39.1" r="97.8" xlink:href="#Dégradé_sans_nom_45"/>
    <radialGradient id="Dégradé_sans_nom_45-9" cx="39.1" cy="38.8" fx="39.1" fy="38.8" r="97.8" xlink:href="#Dégradé_sans_nom_45"/>
    <radialGradient id="Dégradé_sans_nom_45-10" cx="39.1" cy="38.8" fx="39.1" fy="38.8" r="97.8" xlink:href="#Dégradé_sans_nom_45"/>
    <radialGradient id="Dégradé_sans_nom_45-11" cy="38.8" fy="38.8" r="97.8" xlink:href="#Dégradé_sans_nom_45"/>
    <radialGradient id="Dégradé_sans_nom_45-12" cx="39.1" cy="38.8" fx="39.1" fy="38.8" r="97.8" xlink:href="#Dégradé_sans_nom_45"/>
    <radialGradient id="Dégradé_sans_nom_45-13" cy="38.8" fy="38.8" r="97.8" xlink:href="#Dégradé_sans_nom_45"/>
    <radialGradient id="Dégradé_sans_nom_45-14" cy="38.8" fy="38.8" r="97.8" xlink:href="#Dégradé_sans_nom_45"/>
    <radialGradient id="Dégradé_sans_nom_45-15" cy="38.8" fy="38.8" r="97.8" xlink:href="#Dégradé_sans_nom_45"/>
    <radialGradient id="Dégradé_sans_nom_45-16" cx="39.1" cy="38.8" fx="39.1" fy="38.8" r="97.8" xlink:href="#Dégradé_sans_nom_45"/>
    <radialGradient id="Dégradé_sans_nom_45-17" cx="39.1" cy="38.8" fx="39.1" fy="38.8" r="97.8" xlink:href="#Dégradé_sans_nom_45"/>
    <radialGradient id="Dégradé_sans_nom_45-18" cx="39.1" cy="38.8" fx="39.1" fy="38.8" r="97.8" xlink:href="#Dégradé_sans_nom_45"/>
    <radialGradient id="Dégradé_sans_nom_45-19" cx="39.1" cy="38.8" fx="39.1" fy="38.8" r="97.8" xlink:href="#Dégradé_sans_nom_45"/>
    <radialGradient id="Dégradé_sans_nom_45-20" cx="39.1" cy="38.8" fx="39.1" fy="38.8" r="97.8" xlink:href="#Dégradé_sans_nom_45"/>
    <radialGradient id="Dégradé_sans_nom_45-21" cx="39.1" cy="38.8" fx="39.1" fy="38.8" r="97.8" xlink:href="#Dégradé_sans_nom_45"/>
    <radialGradient id="Dégradé_sans_nom_45-22" cx="39.1" cy="38.8" fx="39.1" fy="38.8" r="97.8" xlink:href="#Dégradé_sans_nom_45"/>
    <radialGradient id="Dégradé_sans_nom_45-23" cx="39.1" cy="38.8" fx="39.1" fy="38.8" r="97.8" xlink:href="#Dégradé_sans_nom_45"/>
    <radialGradient id="Dégradé_sans_nom_45-24" cx="39.1" cy="38.8" fx="39.1" fy="38.8" r="97.8" xlink:href="#Dégradé_sans_nom_45"/>
    <radialGradient id="Dégradé_sans_nom_45-25" cx="39.1" cy="38.8" fx="39.1" fy="38.8" r="97.8" xlink:href="#Dégradé_sans_nom_45"/>
    <radialGradient id="Dégradé_sans_nom_44" data-name="Dégradé sans nom 44" cx="41.3" cy="67.4" fx="41.3" fy="67.4" r="43.5" gradientUnits="userSpaceOnUse">
      <stop offset="0" stop-color="#ee3042"/>
      <stop offset=".1" stop-color="#f15036"/>
      <stop offset=".4" stop-color="#f78823"/>
      <stop offset=".6" stop-color="#fbab17"/>
      <stop offset=".7" stop-color="#fdb913"/>
      <stop offset=".8" stop-color="#fdbc20"/>
      <stop offset=".8" stop-color="#fdc542"/>
      <stop offset="1" stop-color="#fed37a"/>
      <stop offset="1" stop-color="#ffd990"/>
    </radialGradient>
    <radialGradient id="Dégradé_sans_nom_44-2" data-name="Dégradé sans nom 44" cx="39.8" cy="74.9" fx="39.8" fy="74.9" r="49.4" xlink:href="#Dégradé_sans_nom_44"/>
    <radialGradient id="Dégradé_sans_nom_44-3" data-name="Dégradé sans nom 44" cx="39.8" cy="74.9" fx="39.8" fy="74.9" r="49.4" xlink:href="#Dégradé_sans_nom_44"/>
  </defs>
  <path class="cls-31" d="M1,81c0,21.5,17.4,39,39,39s39-17.4,39-39v-42.1C79,17.4,61.5,0,40,0S1,17.4,1,39v42.1Z"/>
  <g>
    <g>
      <path class="cls-26" d="M39.6,100.9c0,2.1-1.7,3.8-3.8,3.8s-3.8-1.7-3.8-3.8,1.7-3.8,3.8-3.8,3.8,1.7,3.8,3.8M35.8,97.7c-1.8,0-3.2,1.4-3.2,3.2s1.4,3.2,3.2,3.2,3.2-1.4,3.2-3.2-1.4-3.2-3.2-3.2"/>
      <path class="cls-25" d="M47.9,100.9c0,2.1-1.7,3.8-3.8,3.8s-3.8-1.7-3.8-3.8,1.7-3.8,3.8-3.8,3.8,1.7,3.8,3.8M44.1,97.7c-1.8,0-3.2,1.4-3.2,3.2s1.4,3.2,3.2,3.2,3.2-1.4,3.2-3.2-1.4-3.2-3.2-3.2"/>
      <path class="cls-27" d="M31.7,93.6c-2.1,0-3.8,1.7-3.8,3.8s1.7,3.8,3.8,3.8.2,0,.3,0c0,0,0-.2,0-.3s0-.2,0-.3c-.1,0-.2,0-.3,0-1.8,0-3.2-1.4-3.2-3.2s1.4-3.2,3.2-3.2,3.2,1.4,3.2,3.2-.9,2.6-2.2,3c0,.2,0,.3,0,.5s0,.1,0,.2c1.6-.4,2.9-1.9,2.9-3.7s-1.7-3.8-3.8-3.8"/>
      <path class="cls-30" d="M48.2,93.6c-2,0-3.7,1.5-3.8,3.5.2,0,.4,0,.6.1.1-1.7,1.5-3,3.2-3s3.2,1.4,3.2,3.2-1.4,3.2-3.2,3.2-2.9-1.2-3.2-2.7c-.2,0-.4-.1-.7-.1.2,2,1.8,3.5,3.8,3.5s3.8-1.7,3.8-3.8-1.7-3.8-3.8-3.8"/>
      <path class="cls-29" d="M40,93.6c-2,0-3.7,1.6-3.8,3.5.2,0,.4,0,.6.1.1-1.7,1.5-3,3.2-3s3.2,1.4,3.2,3.2-.9,2.6-2.2,3c0,.2,0,.3,0,.5s0,.1,0,.2c1.6-.4,2.9-1.9,2.9-3.7s-1.7-3.8-3.8-3.8"/>
      <path class="cls-29" d="M40.3,100.9c0-.1,0-.2,0-.3-.1,0-.2,0-.3,0-1.6,0-2.9-1.2-3.2-2.7-.2,0-.4-.1-.7-.1.2,2,1.8,3.5,3.8,3.5s.2,0,.3,0c0-.1,0-.2,0-.3"/>
    </g>
    <g>
      <path class="cls-28" d="M19,84.8c-.3-.2-.7-.2-1.1-.2h-1.2v4.7h.7c0-.3,0-.5,0-.8.2-.4.6-.6,1-.8.4-.2.8-.4,1.1-.8.2-.3.3-.8.2-1.2,0-.5-.4-.8-.8-1M19,86.6c-.2.3-.5.4-.7.5-.3.1-.6.3-.8.5v-2.3h.7c.4,0,.8.1,1,.5,0,.2,0,.6,0,.8"/>
      <path class="cls-28" d="M24.3,84.8c-.6-.4-1.5-.2-2,.3-.2.3-.4.6-.4,1,0,0,0,3.3,0,3.3h.7v-1.5c.4,0,.9,0,1.2.2.3.2.5.6.5,1,0,.1,0,.3,0,.3h.7v-3.1c0-.6-.2-1.1-.7-1.4M24.3,87.6c-.4-.4-1.1-.6-1.7-.5v-.8c0-.1,0-.3,0-.4,0-.3.3-.5.5-.6.3,0,.6,0,.8.1.2.2.3.4.3.7,0,.2,0,.4,0,.7v.8s0,0,0,0"/>
      <path class="cls-28" d="M30,87.6c0,0-.2,0-.3-.1.2-.1.5-.3.6-.5.1-.2.2-.4.3-.7,0-.5-.1-1-.5-1.3-.6-.4-1.3-.4-1.9-.4h-.7v4.7h.7c0-.1,0-.3,0-.4,0-.3.2-.6.4-.8.3-.2.6-.2.9,0,.3.1.5.4.5.7,0,.2,0,.4,0,.5h.7c0-.3,0-.5,0-.8,0-.4-.4-.8-.7-1M28.9,85.4c.5,0,.9.2,1,.7,0,.2,0,.5-.2.7-.2.2-.4.3-.7.4-.3.1-.6.3-.8.5v-2.3h.7Z"/>
      <path class="cls-28" d="M33,85.8v3.6h.7v-3.7c-.2,0-.5,0-.7.1"/>
      <path class="cls-28" d="M38.6,87.1c-.3-.2-.6-.3-.9-.4-.3-.1-.6-.2-.8-.4-.2-.2-.1-.6,0-.8.2-.2.5-.2.8-.2.3,0,.5.4.5.7h.7c0-.3-.1-.7-.3-.9-.2-.2-.5-.4-.9-.4-.3,0-.7,0-1,.2-.3.2-.5.4-.6.7,0,.3,0,.7,0,1,.2.3.5.5.8.6.3.1.7.2,1,.5.1,0,.2.2.3.4,0,.1,0,.3,0,.5-.2.3-.6.4-.9.4-.4,0-.7-.4-.7-.8h-.7c0,.4.1.7.4,1,.3.3.6.4,1,.4.4,0,.8,0,1.1-.3.3-.2.5-.5.5-.9,0-.4,0-.8-.4-1.1"/>
      <path class="cls-28" d="M45.3,87.2c.2-.2.3-.4.4-.6.1-.2.1-.5.1-.7,0-.5-.4-.9-.8-1.1-.4-.2-1-.2-1.4,0-.4.2-.7.6-.8,1.1,0,.5.2,1,.6,1.3l.4-.5c-.1-.1-.3-.3-.3-.5,0-.2,0-.4.1-.6.2-.3.7-.4,1.1-.2.2,0,.3.2.4.4,0,.2,0,.4,0,.6,0,.2-.2.3-.3.5-.5.6-1,1.2-1.5,1.8-.2.2-.3.4-.5.6h3.3v-.7h-1.9l1.2-1.5Z"/>
      <path class="cls-28" d="M52.1,85.3c-.7-.7-1.9-.9-2.8-.5-.9.4-1.5,1.4-1.4,2.4,0,1,.8,1.8,1.8,2.1,1,.2,2-.1,2.6-.9.6-.8.6-2,0-2.8,0,0-.2-.2-.2-.3M52,87.7c-.3.7-.9,1.1-1.7,1-.7,0-1.3-.5-1.5-1.2-.2-.7,0-1.5.6-1.9.6-.4,1.4-.5,2,0,.7.5.9,1.4.6,2.1"/>
      <path class="cls-28" d="M57.4,87.2c.2-.2.3-.4.4-.6.1-.2.1-.5.1-.7,0-.5-.4-.9-.8-1.1-.4-.2-1-.2-1.4,0-.4.2-.7.6-.8,1.1,0,.5.2,1,.6,1.3l.4-.5c-.1-.1-.3-.3-.3-.5,0-.2,0-.4.1-.6.2-.3.7-.4,1.1-.2.2,0,.3.2.4.4,0,.2,0,.4,0,.6,0,.2-.2.3-.3.5-.5.6-1,1.2-1.5,1.8-.2.2-.3.4-.5.6h3.3v-.7h-1.9l1.2-1.5Z"/>
      <path class="cls-28" d="M62.5,86v1.6c-.3-.2-.8-.3-1.1-.5-.3-.2-.4-.5-.4-.9,0-.3,0-1.4,0-1.4h-.7s0,1,0,1.5c0,.5.1,1,.5,1.3.3.2.6.3.8.4.3,0,.5.2.7.4.1.2.2.4.2.6v.4h.7v-3.4h-.7Z"/>
      <path class="cls-28" d="M33,85.4c.2,0,.5,0,.7-.1v-.5h-.7v.7Z"/>
    </g>
    <g>
      <g>
        <path class="cls-32" d="M19.2,62.3c0-.2,0-.3,0-.4,0-.1.1-.2.3-.3.1,0,.3,0,.4,0s.3,0,.4,0c.1,0,.2.2.3.3,0,.1,0,.3,0,.4v.7h2.4v-.5c0-.4,0-.7-.2-1-.1-.3-.3-.6-.5-.8-.2-.2-.5-.4-.8-.6.2-.1.3-.2.4-.4s.3-.3.4-.4.2-.4.2-.6c0-.2,0-.4,0-.7,0-.5-.1-.9-.4-1.3-.3-.4-.6-.6-1.1-.8-.5-.2-1.1-.3-1.7-.3h-2.6v7.4h2.3v-.7ZM19.2,57.8h.4c.3,0,.5,0,.6.2s.2.3.2.5,0,.2,0,.3c0,0,0,.2-.1.2s-.1.1-.2.2c0,0-.2.1-.3.2,0,0-.2.1-.3.2,0,0-.2.1-.3.2v-2Z"/>
        <path class="cls-23" d="M28.2,61.1h-2.3c0-.1.2-.3.3-.4.3-.3.8-.4,1.3-.4h.3v-1.9h-.2c-.6,0-1,.1-1.5.3-.1,0-.3.2-.4.3v-1.4h2.4v-2h-4.5v7.4h4.5v-2Z"/>
        <polygon class="cls-24" points="33.2 61 31.2 61 31.2 55.7 29 55.7 29 63 33.2 63 33.2 61"/>
        <path class="cls-19" d="M36.1,61.6c.4,0,.8.1,1,.4.2.2.4.6.4,1h0c0,.1,2.2.1,2.2.1v-4.6c0-.6-.1-1.1-.4-1.5-.2-.4-.6-.8-1-1-.4-.2-.9-.4-1.5-.4s-1.1.1-1.5.4c-.4.2-.8.6-1,1-.2.4-.4.9-.4,1.5v4.6h2.2v-1.4ZM36.1,58.4c0-.1,0-.3,0-.4,0-.1.1-.2.2-.2.1,0,.2,0,.4,0s.3,0,.4,0c.1,0,.2.1.2.2,0,.1,0,.2,0,.4v1.5c-.4-.2-.8-.4-1.4-.4v-1.2Z"/>
        <rect class="cls-17" x="40.5" y="55.7" width="2.3" height="7.4"/>
        <path class="cls-18" d="M46.2,61.3c-.1,0-.3,0-.3,0s-.2-.1-.2-.2c0,0,0-.2,0-.3h-2.2c0,.5.1.9.4,1.3.2.4.6.7,1,.9s.9.3,1.5.3,1-.1,1.5-.3c.4-.2.7-.5,1-.9.2-.4.3-.8.3-1.2s0-.7-.2-1c-.1-.3-.3-.5-.5-.6-.2-.2-.4-.3-.7-.4-.2-.1-.5-.2-.7-.3-.2,0-.5-.1-.7-.2-.2,0-.4-.1-.5-.2s-.2-.2-.2-.3,0-.1,0-.2c0,0,0-.1.2-.1,0,0,.2,0,.3,0,.2,0,.3,0,.5.2.1.1.2.2.2.4h2.2c0-.5-.1-.9-.4-1.3-.2-.4-.6-.7-1-.9s-.9-.3-1.5-.3-1,.1-1.4.3c-.4.2-.7.5-.9.9-.2.4-.3.8-.3,1.2s0,.7.2,1c.1.3.3.5.5.6s.4.3.7.4.5.2.7.2c.2,0,.5.1.7.2.2,0,.4.1.5.2.1,0,.2.2.2.3s0,.2-.2.3c-.1,0-.3.1-.4.1Z"/>
        <path class="cls-22" d="M56,62.6c.6-.3,1.1-.7,1.5-1.3s.5-1.2.5-1.9-.2-1.4-.5-1.9c-.4-.6-.9-1-1.5-1.3s-1.4-.5-2.2-.5h-1.9v7.4h1.9c.8,0,1.5-.2,2.2-.5ZM55,58c.2.1.4.3.5.5s.2.5.2.8,0,.5-.2.8-.3.4-.5.5-.5.2-.8.2h0v-3h0c.3,0,.6,0,.8.2Z"/>
        <path class="cls-21" d="M63.2,61.1h-2.3c0-.1.2-.3.3-.4.3-.3.8-.4,1.3-.4h.3v-1.9h-.2c-.6,0-1,.1-1.5.3-.1,0-.3.2-.4.3v-1.4h2.4v-2h-4.5v7.4h4.5v-2Z"/>
      </g>
      <g>
        <polygon class="cls-20" points="17.3 69.7 15.3 69.7 15.3 64.3 13 64.3 13 71.7 17.3 71.7 17.3 69.7"/>
        <path class="cls-11" d="M21,64.2c-.6,0-1.1.1-1.5.4-.4.2-.8.6-1,1-.2.4-.4.9-.4,1.5v4.6h2.2v-1.4c.4,0,.8.1,1,.4.2.2.4.6.4,1h0c0,.1,2.2.1,2.2.1v-4.6c0-.6-.1-1.1-.4-1.5-.2-.4-.6-.8-1-1-.4-.2-.9-.4-1.5-.4ZM20.3,68.2v-1.2c0-.1,0-.3,0-.4,0-.1.1-.2.2-.2.1,0,.2,0,.4,0s.3,0,.4,0c.1,0,.2.1.2.2,0,.1,0,.2,0,.4v1.5c-.4-.2-.8-.4-1.4-.4Z"/>
        <path class="cls-12" d="M30.9,67.4h-.1c-.6,0-1.1.1-1.5.4-.1,0-.2.1-.3.2v-1.6h2.2v-2h-4.4v7.4h2.3v-.7c0-.6.1-1,.4-1.3.3-.3.7-.4,1.2-.4h.2v-1.9Z"/>
        <polygon class="cls-10" points="32 64.3 32 71.7 36.3 71.7 36.3 69.7 34.3 69.7 34.3 64.3 32 64.3"/>
        <path class="cls-15" d="M40.7,71.6h0c0,.1,2.2.1,2.2.1v-4.6c0-.6-.1-1.1-.4-1.5-.2-.4-.6-.8-1-1-.4-.2-.9-.4-1.5-.4s-1.1.1-1.5.4c-.4.2-.8.6-1,1-.2.4-.4.9-.4,1.5v4.6h2.2v-1.4c.4,0,.8.1,1,.4.2.2.4.6.4,1ZM39.3,67.1c0-.1,0-.3,0-.4,0-.1.1-.2.2-.2.1,0,.2,0,.4,0s.3,0,.4,0c.1,0,.2.1.2.2,0,.1,0,.2,0,.4v1.5c-.4-.2-.8-.4-1.4-.4v-1.2Z"/>
        <path class="cls-14" d="M46.8,64.6c-.5-.2-1.1-.3-1.8-.3h-1.1v7.4h2.3v-4.9c.1,0,.2,0,.3,0,.2,0,.3.2.4.3,0,.1.1.3.1.5v2.1h2.2v-2.1c0-.2,0-.4.1-.6,0-.1.2-.2.4-.3.1,0,.2,0,.4,0v4.9h2.3v-7.4h-1.1c-.7,0-1.3,0-1.8.3-.5.2-.9.4-1.3.8-.3-.3-.8-.6-1.3-.8Z"/>
        <path class="cls-13" d="M61.6,71.7v-7.4h-1.1c-.7,0-1.3,0-1.8.3-.5.2-.9.4-1.3.8-.3-.3-.8-.6-1.3-.8-.5-.2-1.1-.3-1.8-.3h-1.1v7.4h2.3v-4.9c.1,0,.2,0,.3,0,.2,0,.3.2.4.3,0,.1.1.3.1.5v2.1h2.2v-2.1c0-.2,0-.4.1-.6,0-.1.2-.2.4-.3.1,0,.2,0,.4,0v4.9h2.3Z"/>
        <path class="cls-16" d="M67.2,69.7h-2.3c0-.1.2-.3.3-.4.3-.3.8-.4,1.3-.4h.3v-1.9h-.2c-.6,0-1,.1-1.5.3-.1,0-.3.2-.4.3v-1.4h2.4v-2h-4.5v7.4h4.5v-2Z"/>
      </g>
      <g>
        <path class="cls-9" d="M19.4,74c-.4-.3-.8-.6-1.3-.8s-1-.3-1.6-.3-1.1,0-1.6.3-.9.5-1.3.8-.6.8-.8,1.2c-.2.5-.3,1-.3,1.5s.1,1,.3,1.5c.2.5.5.9.8,1.2s.8.6,1.3.8c.5.2,1,.3,1.6.3s1.1,0,1.6-.3c.5-.2.9-.5,1.3-.8s.6-.8.8-1.2c.2-.5.3-1,.3-1.5s-.1-1-.3-1.5c-.2-.5-.5-.9-.8-1.2ZM18.1,77.4c0,.2-.2.4-.4.5-.2.2-.3.3-.5.4-.2,0-.4.1-.7.1s-.5,0-.7-.1c-.2,0-.4-.2-.5-.4-.2-.2-.3-.3-.4-.5,0-.2-.1-.4-.1-.7s0-.5.1-.7.2-.4.4-.5c.2-.2.3-.3.5-.4.2,0,.4-.1.7-.1s.5,0,.7.1.4.2.5.4c.2.2.3.3.4.5,0,.2.1.4.1.7s0,.5-.1.7Z"/>
        <polygon class="cls-7" points="23.1 73 20.8 73 20.8 80.4 25.1 80.4 25.1 78.3 23.1 78.3 23.1 73"/>
        <path class="cls-8" d="M27.4,76.5c-.2,0-.4-.1-.5-.3-.2-.2-.2-.5-.2-.9s0-.7,0-1c0-.4.1-.8.3-1.2h-2.2c-.1.4-.2.8-.3,1.2,0,.4-.1.8-.1,1.2,0,.7.1,1.2.4,1.7.3.5.6.9,1.1,1.1.3.2.6.3.9.3l-.5,1.8h2.4l1.9-7.4h-2.3l-.9,3.5Z"/>
        <path class="cls-3" d="M36.2,73.3c-.5.2-.9.4-1.3.8-.3-.3-.8-.6-1.3-.8-.5-.2-1.1-.3-1.8-.3h-1.1v7.4h2.3v-4.9c.1,0,.2,0,.3,0,.2,0,.3.2.4.3,0,.1.1.3.1.5v2.1h2.2v-2.1c0-.2,0-.4.1-.6,0-.1.2-.2.4-.3.1,0,.2,0,.4,0v4.9h2.3v-7.4h-1.1c-.7,0-1.3,0-1.8.3Z"/>
        <path class="cls-6" d="M44,73.4c-.5-.2-1-.3-1.6-.3h-2.8v7.4h2.3v-.3c0-.3,0-.5.2-.7.1-.2.3-.4.5-.5.2-.1.4-.3.7-.4.3-.1.5-.3.8-.4.3-.2.5-.3.7-.5.2-.2.4-.5.5-.8.1-.3.2-.7.2-1.1s-.1-.9-.4-1.3c-.3-.4-.6-.7-1.1-.9ZM43.1,76c0,0,0,.2-.1.2s-.1.1-.2.2c0,0-.2.1-.3.2,0,0-.2.1-.3.2-.1,0-.2.1-.3.2v-1.8h.6c.2,0,.4,0,.5.2s.2.3.2.4,0,.2,0,.3Z"/>
        <rect class="cls-1" x="45.7" y="73" width="2.3" height="7.4"/>
        <path class="cls-4" d="M55.8,78.3c0,0,0,0,0-.2.2-.5.3-.9.3-1.4s-.1-1-.3-1.5c-.2-.5-.5-.9-.8-1.2s-.8-.6-1.3-.8-1-.3-1.6-.3-1.1,0-1.6.3-.9.5-1.3.8-.6.8-.8,1.2c-.2.5-.3,1-.3,1.5s.1,1,.3,1.5c.2.5.5.9.8,1.2s.8.6,1.3.8c.5.2,1,.3,1.6.3s1,0,1.5-.3c.2,0,.4-.2.6-.4v.5h2.2v-.3c0-.5-.1-1-.3-1.4,0-.2-.2-.3-.3-.4ZM50.7,77.4c0-.2-.1-.4-.1-.7s0-.5.1-.7.2-.4.4-.5c.2-.2.3-.3.5-.4.2,0,.4-.1.7-.1s.5,0,.7.1.4.2.5.4c.2.2.3.3.4.5,0,.2.1.4.1.7s0,.5-.1.7c0,0,0,0,0,.1-.4,0-.8.1-1.1.3-.3.1-.5.3-.7.6-.1,0-.2,0-.3,0-.2,0-.4-.2-.5-.4-.2-.2-.3-.3-.4-.5Z"/>
        <path class="cls-5" d="M60.1,77.6c0,.1,0,.3,0,.4s-.1.2-.2.2c0,0-.2,0-.3,0s-.2,0-.3,0c0,0-.2-.1-.2-.2,0-.1,0-.2,0-.4v-4.6h-2.3v4.6c0,.6.1,1.1.4,1.5.2.4.6.8,1,1,.4.2,1,.4,1.6.4s1.1-.1,1.6-.4c.4-.2.8-.6,1-1,.2-.4.4-.9.4-1.5v-4.6h-2.3v4.6Z"/>
        <path class="cls-2" d="M62.8,80.4h4.5v-2h-2.3c0-.1.2-.3.3-.4.3-.3.8-.4,1.3-.4h.3v-1.9h-.2c-.6,0-1,.1-1.5.3-.1,0-.3.2-.4.3v-1.4h2.4v-2h-4.5v7.4Z"/>
      </g>
    </g>
    <g>
      <path class="cls-33" d="M41.7,47.2c.3.1.6.2,1.1.2-.5,1-1.5,1.7-2.8,1.7s-2.3-.7-2.8-1.7c.5,0,.8,0,1.1-.2.4-.2,1.1-.2,1.7.3.6-.5,1.3-.5,1.7-.3M35.6,41.4c-2.1-1-3.5-2.9-3.9-5-3.5,8.5,2.6,14.8,8,15.1.1,0,.2,0,.4,0h0c0,0,.1,0,.2,0,0,0,.1,0,.2,0,3.8-.2,7.8-3.2,8.8-8.2-1,1.2-2.4,2-3.8,2.4,3.7-3.3,3.5-9.4-.7-12.4-3.6-2.6-5.3-6.1-4.2-9.9-5.6,4.1-7.6,11.6-4.9,18"/>
      <path class="cls-35" d="M34,19.9c-1.9.7-3.6,1.7-5.2,3-1.5,1.3-2.8,2.8-3.8,4.6-1,1.7-1.7,3.6-2,5.6-.3,1.9-.3,3.9,0,5.9.3,1.9,1,3.8,2,5.4,1.9,3.3,5.1,5.9,8.6,7.1-3.3-1.7-6.1-4.4-7.6-7.7-1.6-3.2-2-6.9-1.2-10.4.2-.9.5-1.7.8-2.5.3-.8.7-1.6,1.2-2.3.9-1.5,2.1-2.8,3.4-3.9,1.4-1.1,2.9-1.9,4.5-2.5,1.6-.6,3.3-.9,5.1-.9,3.5,0,6.9,1.2,9.6,3.3,1.4,1.1,2.5,2.4,3.5,3.9.5.7.9,1.5,1.2,2.3.3.8.6,1.6.8,2.5.8,3.4.4,7.1-1.2,10.4-1.5,3.3-4.2,6-7.5,7.7,3.5-1.2,6.7-3.8,8.6-7.1,1-1.7,1.7-3.5,2-5.5.3-1.9.3-3.9,0-5.9-.2-1-.4-1.9-.8-2.9-.3-.9-.8-1.8-1.3-2.7-1-1.7-2.3-3.3-3.8-4.5-1.5-1.3-3.3-2.3-5.2-3-1.9-.7-3.9-1-5.9-1-2,0-4,.4-5.9,1.1"/>
      <path class="cls-34" d="M28.5,19c-3.3,2.3-5.9,5.7-7.2,9.5-.3,1-.6,1.9-.8,2.9-.2,1-.3,2-.3,3,0,2,.2,4,.7,5.9.3,1,.6,1.9,1,2.8l.3.7.2.3.2.3c.1.2.2.4.4.6l.4.6c.6.8,1.1,1.6,1.8,2.3.7.7,1.4,1.4,2.1,2-1.4-1.4-2.6-2.9-3.5-4.6-.5-.8-.9-1.7-1.2-2.6-.3-.9-.6-1.8-.8-2.7-.8-3.7-.5-7.6.8-11.1.3-.9.8-1.7,1.2-2.5.5-.8,1-1.6,1.6-2.3.3-.4.6-.7.9-1.1.3-.3.6-.7,1-1,.7-.6,1.4-1.2,2.2-1.7.8-.5,1.6-1,2.4-1.4.8-.4,1.7-.7,2.6-1,.9-.3,1.8-.5,2.7-.6.9-.1,1.8-.2,2.8-.2.9,0,1.9,0,2.8.2.9.1,1.8.3,2.7.6.9.3,1.8.6,2.6,1,.8.4,1.6.9,2.4,1.4.8.5,1.5,1.1,2.2,1.7.3.3.7.7,1,1,.3.3.6.7.9,1.1,1.2,1.5,2.1,3.1,2.8,4.8,1.4,3.5,1.7,7.4.8,11.1-.2.9-.5,1.8-.8,2.7-.4.9-.8,1.8-1.2,2.6-1,1.7-2.1,3.2-3.5,4.6.8-.6,1.5-1.3,2.1-2,.7-.7,1.3-1.5,1.8-2.3.6-.8,1-1.7,1.5-2.6.4-.9.8-1.8,1-2.8.5-1.9.8-3.9.7-5.9,0-1-.1-2-.3-3-.2-1-.5-2-.8-2.9-1.3-3.8-3.9-7.2-7.2-9.5-3.3-2.4-7.4-3.6-11.4-3.6-4.1,0-8.1,1.3-11.4,3.6"/>
    </g>
  </g>
</svg>